<svg width="111" height="99" viewBox="0 0 111 99" fill="none" xmlns="http://www.w3.org/2000/svg">
<g clip-path="url(#clip0)">
<path opacity="0.18" d="M110.981 57.9437C110.873 61.739 110.227 65.664 108.806 69.1757C108.051 71.0883 107.018 72.8788 105.742 74.4891C105.002 75.4224 104.168 76.276 103.252 77.0365V77.0365C101.709 78.2543 100.022 79.2752 98.2284 80.0754C97.1515 80.5752 96.0747 81.0317 94.9736 81.4828C94.0798 81.8502 93.186 82.2175 92.303 82.5984C83.8469 86.2668 76.2201 91.6937 67.6671 95.1244C51.4308 101.618 31.8265 100.062 17.7762 89.6515C14.5365 87.2403 11.6533 84.381 9.21249 81.1586C1.03644 70.4264 -2.33952 55.9663 1.72024 43.0973C3.22516 38.3376 5.69924 33.8156 9.29595 30.3661C13.2803 26.5518 18.4143 24.2287 23.1309 21.3707C30.9125 16.6509 37.655 10.3909 42.9478 2.97217C45.9442 -1.23915 53.178 0.0736778 58.2931 0.694977C59.6957 0.862458 61.1117 1.04344 62.4444 1.50537C66.4826 2.90734 69.2017 6.63784 71.4954 10.2684C73.7891 13.8989 75.9078 18.7046 79.7306 20.6225C83.8712 22.6998 88.9513 21.3896 93.361 22.8051C96.4704 23.8046 99.0145 26.0926 101.122 28.5886C107.934 36.6304 111.28 47.3843 110.981 57.9437Z" fill="#FFBA5F"/>
<path d="M77.1355 55.1118H72.7715C72.5291 55.1118 72.3327 55.3089 72.3327 55.5521C72.3327 55.7953 72.5291 55.9924 72.7715 55.9924H77.1355C77.3778 55.9924 77.5743 55.7953 77.5743 55.5521C77.5743 55.3089 77.3778 55.1118 77.1355 55.1118Z" fill="#FFBA5F"/>
<path d="M77.1355 55.1118H72.7715C72.5291 55.1118 72.3327 55.3089 72.3327 55.5521C72.3327 55.7953 72.5291 55.9924 72.7715 55.9924H77.1355C77.3778 55.9924 77.5743 55.7953 77.5743 55.5521C77.5743 55.3089 77.3778 55.1118 77.1355 55.1118Z" fill="url(#paint0_linear)"/>
<path d="M53.4795 49.9391C53.4795 49.9391 60.7483 49.3016 62.2936 50.5928C63.8389 51.884 60.743 68.5592 60.743 68.5592L59.3134 68.4133L58.5865 55.0067L53.2023 54.7366L53.4795 49.9391Z" fill="#FAAF90"/>
<path d="M53.4795 49.9391C53.4795 49.9391 60.7483 49.3016 62.2936 50.5928C63.8389 51.884 60.743 68.5592 60.743 68.5592L59.3134 68.4133L58.5865 55.0067L53.2023 54.7366L53.4795 49.9391Z" fill="url(#paint1_linear)"/>
<path d="M55.9294 49.4473L57.0924 49.531L55.6817 52.5322L52.2088 50.7034L55.9294 49.4473Z" fill="#3E3E54"/>
<path d="M55.9294 49.4473L57.0924 49.531L55.6817 52.5322L52.2088 50.7034L55.9294 49.4473Z" fill="url(#paint2_linear)"/>
<path d="M60.996 68.5885L59.1465 68.6074L59.1196 66.1924L61.2572 66.1006L60.996 68.5885Z" fill="#FFBA5F"/>
<path d="M58.9527 68.8076C58.9131 68.9554 58.9004 69.1091 58.915 69.2614L58.9419 69.9691C58.9369 70.1197 58.9693 70.2692 59.0361 70.4041C59.1164 70.4977 59.2154 70.5732 59.3268 70.6258C59.4381 70.6784 59.5592 70.7069 59.6823 70.7093C60.4447 70.8492 61.2154 70.9394 61.9894 70.9794C62.0543 70.9916 62.1211 70.9871 62.1837 70.9663C62.2463 70.9455 62.3027 70.9091 62.3475 70.8606C62.3655 70.8202 62.3749 70.7765 62.3749 70.7323C62.3749 70.688 62.3655 70.6443 62.3475 70.604C62.194 70.1474 61.5991 70.0097 61.3325 69.6099C61.2092 69.4052 61.1501 69.168 61.1629 68.9291C61.1741 68.8384 61.1658 68.7463 61.1387 68.659C61.0687 68.4834 60.848 68.4267 60.6595 68.4078C60.2449 68.37 59.1304 68.2943 58.9527 68.8076Z" fill="#3E3E54"/>
<path d="M75.7463 79.7936C80.754 79.7936 84.8135 75.7203 84.8135 70.6956C84.8135 65.671 80.754 61.5977 75.7463 61.5977C70.7387 61.5977 66.6792 65.671 66.6792 70.6956C66.6792 75.7203 70.7387 79.7936 75.7463 79.7936Z" stroke="#3E3E54" stroke-width="4.11" stroke-miterlimit="10"/>
<path d="M38.3577 79.7936C43.3654 79.7936 47.4249 75.7203 47.4249 70.6956C47.4249 65.671 43.3654 61.5977 38.3577 61.5977C33.3501 61.5977 29.2906 65.671 29.2906 70.6956C29.2906 75.7203 33.3501 79.7936 38.3577 79.7936Z" stroke="#3E3E54" stroke-width="4.11" stroke-miterlimit="10"/>
<path d="M53.9372 71.6113C53.8962 71.6103 53.8555 71.604 53.8161 71.5924C53.7457 71.5726 53.6813 71.5356 53.6286 71.4847C53.576 71.4338 53.5368 71.3705 53.5145 71.3007L53.4742 71.1683C53.4383 71.2497 53.3793 71.3187 53.3047 71.3667C53.23 71.4148 53.1429 71.4397 53.0542 71.4384L38.3497 71.1359C38.2657 71.1347 38.1838 71.1095 38.1135 71.0633C38.0433 71.017 37.9877 70.9516 37.9532 70.8748C37.9187 70.7979 37.9068 70.7128 37.9188 70.6294C37.9309 70.546 37.9664 70.4677 38.0212 70.4038L49.2394 57.2404C49.2904 57.1803 49.3565 57.1351 49.4309 57.1094C49.5052 57.0838 49.5851 57.0786 49.6621 57.0945C49.7392 57.1103 49.8108 57.1464 49.8694 57.1991C49.9281 57.2518 49.9717 57.3192 49.9959 57.3944L54.1553 70.3903L71.9073 55.1928C71.9649 55.1429 72.0343 55.1088 72.1088 55.0937C72.1834 55.0786 72.2605 55.0831 72.3328 55.1068C72.4051 55.1304 72.4701 55.1724 72.5215 55.2286C72.5729 55.2849 72.6089 55.3535 72.6261 55.4278L76.2605 71.017C76.2745 71.0743 76.277 71.1339 76.2679 71.1922C76.2588 71.2504 76.2383 71.3063 76.2075 71.3566C76.1767 71.4068 76.1362 71.4505 76.0885 71.4849C76.0407 71.5194 75.9867 71.544 75.9294 71.5573C75.8723 71.5721 75.8127 71.5752 75.7544 71.5664C75.696 71.5576 75.64 71.5371 75.5898 71.506C75.5395 71.475 75.496 71.4341 75.4618 71.3859C75.4277 71.3376 75.4036 71.2829 75.391 71.225L71.9208 56.3463L54.2145 71.5033C54.1374 71.5706 54.0394 71.6088 53.9372 71.6113V71.6113ZM39.3027 70.2607L53.073 70.5524C53.1522 70.5545 53.2293 70.5779 53.2965 70.6199L49.409 58.429L39.3027 70.2607Z" fill="#FFBA5F"/>
<path d="M53.9372 71.6113C53.8962 71.6103 53.8555 71.604 53.8161 71.5924C53.7457 71.5726 53.6813 71.5356 53.6286 71.4847C53.576 71.4338 53.5368 71.3705 53.5145 71.3007L53.4742 71.1683C53.4383 71.2497 53.3793 71.3187 53.3047 71.3667C53.23 71.4148 53.1429 71.4397 53.0542 71.4384L38.3497 71.1359C38.2657 71.1347 38.1838 71.1095 38.1135 71.0633C38.0433 71.017 37.9877 70.9516 37.9532 70.8748C37.9187 70.7979 37.9068 70.7128 37.9188 70.6294C37.9309 70.546 37.9664 70.4677 38.0212 70.4038L49.2394 57.2404C49.2904 57.1803 49.3565 57.1351 49.4309 57.1094C49.5052 57.0838 49.5851 57.0786 49.6621 57.0945C49.7392 57.1103 49.8108 57.1464 49.8694 57.1991C49.9281 57.2518 49.9717 57.3192 49.9959 57.3944L54.1553 70.3903L71.9073 55.1928C71.9649 55.1429 72.0343 55.1088 72.1088 55.0937C72.1834 55.0786 72.2605 55.0831 72.3328 55.1068C72.4051 55.1304 72.4701 55.1724 72.5215 55.2286C72.5729 55.2849 72.6089 55.3535 72.6261 55.4278L76.2605 71.017C76.2745 71.0743 76.277 71.1339 76.2679 71.1922C76.2588 71.2504 76.2383 71.3063 76.2075 71.3566C76.1767 71.4068 76.1362 71.4505 76.0885 71.4849C76.0407 71.5194 75.9867 71.544 75.9294 71.5573C75.8723 71.5721 75.8127 71.5752 75.7544 71.5664C75.696 71.5576 75.64 71.5371 75.5898 71.506C75.5395 71.475 75.496 71.4341 75.4618 71.3859C75.4277 71.3376 75.4036 71.2829 75.391 71.225L71.9208 56.3463L54.2145 71.5033C54.1374 71.5706 54.0394 71.6088 53.9372 71.6113V71.6113ZM39.3027 70.2607L53.073 70.5524C53.1522 70.5545 53.2293 70.5779 53.2965 70.6199L49.409 58.429L39.3027 70.2607Z" fill="url(#paint3_linear)"/>
<path d="M50.7793 55.8145H45.6589C45.1028 55.8145 44.652 56.2668 44.652 56.8247V57.0544C44.652 57.6123 45.1028 58.0646 45.6589 58.0646H50.7793C51.3354 58.0646 51.7862 57.6123 51.7862 57.0544V56.8247C51.7862 56.2668 51.3354 55.8145 50.7793 55.8145Z" fill="#3E3E54"/>
<path d="M50.7793 55.8145H45.6589C45.1028 55.8145 44.652 56.2668 44.652 56.8247V57.0544C44.652 57.6123 45.1028 58.0646 45.6589 58.0646H50.7793C51.3354 58.0646 51.7862 57.6123 51.7862 57.0544V56.8247C51.7862 56.2668 51.3354 55.8145 50.7793 55.8145Z" fill="url(#paint4_linear)"/>
<path d="M55.6009 52.9507C55.6009 52.9507 62.2882 55.8681 63.0366 57.7428C63.7851 59.6175 53.1296 72.7917 53.1296 72.7917L51.945 71.9813L57.6793 59.8525L53.0649 57.0459L55.6009 52.9507Z" fill="#FAAF90"/>
<path d="M45.2954 46.9082C45.2954 46.9082 44.547 47.8239 44.4232 50.5739C44.2993 53.3238 45.0047 55.0769 47.2472 56.2844C49.4898 57.4919 53.1053 57.9538 53.1053 57.9538L56.6051 52.4081L52.6181 50.2011L45.2954 46.9082Z" fill="#3E3E54"/>
<path d="M45.2954 46.9082C45.2954 46.9082 44.547 47.8239 44.4232 50.5739C44.2993 53.3238 45.0047 55.0769 47.2472 56.2844C49.4898 57.4919 53.1053 57.9538 53.1053 57.9538L56.6051 52.4081L52.6181 50.2011L45.2954 46.9082Z" fill="url(#paint5_linear)"/>
<path d="M65.9011 48.4478L66.3157 53.3263L72.9222 54.7418C72.9222 54.7418 73.4203 53.9503 74.7071 54.7013C75.994 55.4522 74.874 56.7029 74.2091 56.7434C73.5441 56.784 72.5049 56.2437 72.5049 56.2437C72.5049 56.2437 65.3196 56.576 64.7785 55.8682C64.2374 55.1605 62.8671 48.9907 62.8671 48.9907L65.9011 48.4478Z" fill="#FAAF90"/>
<path d="M69.2528 35.3086C69.0424 35.0602 68.7689 34.8735 68.4613 34.7683C68.2538 34.7151 68.0403 34.6887 67.826 34.69C67.4589 34.6715 67.091 34.6787 66.7249 34.7116C65.9523 34.8035 65.2146 35.1141 64.4393 35.1843C63.8446 35.2373 63.2459 35.1446 62.6948 34.9142C62.337 34.7273 61.9642 34.571 61.5802 34.4469C61.1062 34.3611 60.618 34.4011 60.1642 34.563C59.8979 34.6255 59.6522 34.7558 59.4507 34.9412C59.0604 35.3572 59.1492 36.0434 59.4157 36.562C59.9542 37.5804 61.0795 38.2044 62.2236 38.3314C63.0474 38.4232 63.882 38.2881 64.7112 38.3314C64.8929 38.3331 65.0721 38.3746 65.2362 38.4529C65.3654 38.5232 65.4704 38.6339 65.5942 38.7231C65.955 38.9689 66.4234 38.9662 66.8595 38.9527C67.1792 38.9576 67.498 38.9185 67.8072 38.8365C67.9983 38.7771 68.1814 38.6825 68.3752 38.6312C68.8571 38.5042 69.6351 38.6987 69.8263 38.0909C70.0083 37.4934 69.9979 36.8535 69.7967 36.2622C69.6806 35.9111 69.4957 35.5869 69.2528 35.3086Z" fill="#3E3E54"/>
<path d="M69.4251 39.8281C69.4251 40.0307 69.4924 40.2279 69.5113 40.4305C69.5143 40.4444 69.5145 40.4587 69.5117 40.4727C69.5089 40.4866 69.5032 40.4999 69.4951 40.5115C69.4755 40.5279 69.4506 40.5365 69.4251 40.5358C69.223 40.5216 69.0206 40.5607 68.8382 40.6493C68.6363 40.7924 68.569 41.0788 68.3833 41.2328C68.2242 41.3366 68.0318 41.3762 67.8448 41.3435C67.6537 41.3192 67.4679 41.2598 67.2768 41.2517C66.9118 41.259 66.5563 41.3695 66.2511 41.5704C65.9484 41.7695 65.6241 41.9336 65.2846 42.0593C65.1136 42.1209 64.93 42.1381 64.7506 42.1093C64.5713 42.0805 64.4021 42.0066 64.2589 41.8946C64.1082 41.7451 63.9988 41.5589 63.9412 41.3543C63.8943 41.2389 63.8758 41.1138 63.8874 40.9896C63.9174 40.8588 63.9773 40.7367 64.0624 40.6331C64.1543 40.4863 64.2667 40.3534 64.3962 40.2387C64.5039 40.1495 64.6304 40.0847 64.7408 39.9983C64.8562 39.8941 64.9625 39.7803 65.0585 39.6579C65.4488 39.2176 65.9603 38.9015 66.3534 38.4639C66.4745 38.3288 66.3884 38.5017 66.5176 38.3748C66.8245 38.0803 67.7694 37.9588 68.1948 37.9209C68.6202 37.8831 68.7117 37.6103 69.1021 37.7805C69.4386 37.9291 69.8235 38.183 69.7562 38.5909C69.6889 38.9988 69.417 39.3905 69.4251 39.8281Z" fill="#FAAF90"/>
<path d="M69.8535 37.449L65.5996 38.194C65.4107 38.2271 65.2842 38.4076 65.3172 38.5972C65.3502 38.7868 65.5301 38.9136 65.719 38.8805L69.9729 38.1356C70.1619 38.1025 70.2883 37.922 70.2553 37.7324C70.2224 37.5428 70.0425 37.416 69.8535 37.449Z" fill="#FFBA5F"/>
<path d="M62.4552 39.1716C59.863 38.728 57.2015 38.9416 54.7125 39.7929C52.2311 40.6432 49.9015 41.8872 47.8126 43.4775C46.8407 44.196 45.8635 45.0226 45.4516 46.1626C45.301 46.5196 45.2717 46.9164 45.3681 47.2917C45.4559 47.5318 45.5874 47.7535 45.7558 47.9454C46.4435 48.8054 47.2922 49.522 48.2541 50.0552C48.9253 50.4437 49.668 50.6918 50.4374 50.7845C51.029 50.8246 51.6231 50.7983 52.2088 50.7062C53.5872 50.5333 54.9845 50.2902 56.2094 49.6257C56.9093 49.2529 57.5555 48.7504 58.2635 48.4236C58.9231 48.1264 59.6526 47.9752 60.2611 47.5835C60.8048 47.1859 61.275 46.6959 61.6502 46.1356L63.0905 44.2447C63.5314 43.6961 63.9258 43.1115 64.2697 42.4969C64.5631 41.9351 65.2254 40.733 64.9373 40.0658C64.6493 39.3985 63.0878 39.2905 62.4552 39.1716Z" fill="#FFBA5F"/>
<path d="M62.4552 39.1716C59.863 38.728 57.2015 38.9416 54.7125 39.7929C52.2311 40.6432 49.9015 41.8872 47.8126 43.4775C46.8407 44.196 45.8635 45.0226 45.4516 46.1626C45.301 46.5196 45.2717 46.9164 45.3681 47.2917C45.4559 47.5318 45.5874 47.7535 45.7558 47.9454C46.4435 48.8054 47.2922 49.522 48.2541 50.0552C48.9253 50.4437 49.668 50.6918 50.4374 50.7845C51.029 50.8246 51.6231 50.7983 52.2088 50.7062C53.5872 50.5333 54.9845 50.2902 56.2094 49.6257C56.9093 49.2529 57.5555 48.7504 58.2635 48.4236C58.9231 48.1264 59.6526 47.9752 60.2611 47.5835C60.8048 47.1859 61.275 46.6959 61.6502 46.1356L63.0905 44.2447C63.5314 43.6961 63.9258 43.1115 64.2697 42.4969C64.5631 41.9351 65.2254 40.733 64.9373 40.0658C64.6493 39.3985 63.0878 39.2905 62.4552 39.1716Z" fill="url(#paint6_linear)"/>
<path d="M64.3854 40.2358C64.3854 40.2358 65.4434 39.4876 65.6507 42.197C65.858 44.9064 65.9011 48.4478 65.9011 48.4478L61.6637 49.9902C61.6637 49.9902 60.9583 46.1139 61.1252 44.1987C61.2922 42.2834 62.6194 40.1926 64.3854 40.2358Z" fill="#FFBA5F"/>
<path d="M53.8919 72.3469L52.092 71.3042L50.7419 73.6506L52.5418 74.6933L53.8919 72.3469Z" fill="#FFBA5F"/>
<path d="M50.4428 73.732C50.3191 73.8519 50.2186 73.9939 50.1467 74.1507L49.7725 74.8503C49.6785 74.9909 49.6237 75.1541 49.6136 75.323C49.6384 75.4591 49.6911 75.5885 49.7686 75.7029C49.846 75.8173 49.9463 75.9143 50.0632 75.9876C50.7205 76.5577 51.4139 77.0846 52.1389 77.5651C52.1944 77.6146 52.2618 77.6488 52.3345 77.6644C52.4071 77.6801 52.4825 77.6766 52.5534 77.6543C52.5956 77.6283 52.6315 77.5933 52.6585 77.5517C52.6855 77.5101 52.7029 77.463 52.7096 77.4139C52.82 76.8871 52.3273 76.4117 52.295 75.8714C52.2941 75.6032 52.3729 75.3409 52.5211 75.1177C52.5799 75.0368 52.622 74.945 52.645 74.8476C52.6773 74.6342 52.4969 74.4559 52.3246 74.329C51.9369 74.0642 50.9058 73.3403 50.4428 73.732Z" fill="#3E3E54"/>
<path opacity="0.41" d="M98.2096 80.0693C96.2686 80.977 94.2468 81.7414 92.2869 82.5924C83.8308 86.2607 76.204 91.6876 67.651 95.1183C51.4308 101.618 31.8266 100.062 17.7763 89.6509C14.5365 87.2396 11.6533 84.3803 9.21252 81.158V80.0774L98.2096 80.0693Z" fill="#FFBA5F"/>
<path d="M20.21 35.276L18.1801 80.3743H23.7959L21.2626 35.2625C21.2351 35.1421 21.1674 35.0348 21.0706 34.9584C20.9739 34.882 20.8539 34.8412 20.7308 34.8428C20.6077 34.8444 20.4889 34.8883 20.3941 34.9671C20.2993 35.0459 20.2343 35.155 20.21 35.276Z" fill="#FFBA5F"/>
<path d="M20.21 35.276L18.1801 80.3743H23.7959L21.2626 35.2625C21.2351 35.1421 21.1674 35.0348 21.0706 34.9584C20.9739 34.882 20.8539 34.8412 20.7308 34.8428C20.6077 34.8444 20.4889 34.8883 20.3941 34.9671C20.2993 35.0459 20.2343 35.155 20.21 35.276Z" fill="url(#paint7_linear)"/>
<path d="M20.7134 34.3174L16.7344 36.781L13.1027 43.6936L14.0099 44.0151L21.1145 35.3358L20.7134 34.3174Z" fill="#FFBA5F"/>
<path d="M20.7134 34.3174L16.7344 36.781L13.1027 43.6936L14.0099 44.0151L21.1145 35.3358L20.7134 34.3174Z" fill="url(#paint8_linear)"/>
<path d="M21.1872 35.1711L20.1696 30.5924L14.8526 24.8818L14.2522 25.6382L20.0969 35.217L21.1872 35.1711Z" fill="#FFBA5F"/>
<path d="M21.1872 35.1711L20.1696 30.5924L14.8526 24.8818L14.2522 25.6382L20.0969 35.217L21.1872 35.1711Z" fill="url(#paint9_linear)"/>
<path d="M20.0646 35.2252L24.2886 37.2403L32.0446 36.5461L31.8212 35.606L20.6999 34.3364L20.0646 35.2252Z" fill="#FFBA5F"/>
<path d="M20.0646 35.2252L24.2886 37.2403L32.0446 36.5461L31.8212 35.606L20.6999 34.3364L20.0646 35.2252Z" fill="url(#paint10_linear)"/>
<path d="M40.0538 83.041C35.5972 83.8362 31.3504 85.5398 27.5757 88.0465L65.045 86.8174C65.7504 86.7931 66.6603 86.604 66.7572 85.9044C66.8488 85.2885 66.2026 84.8023 66.0896 84.1891C65.885 83.1085 67.2903 82.4927 68.3806 82.2982L79.2919 80.437C71.8481 79.6941 64.3639 79.4483 56.8824 79.4375C53.1915 79.4375 49.4979 79.4861 45.8069 79.5698C43.5132 79.6185 38.1424 78.7459 36.5567 80.6666C37.0063 81.4229 39.0092 83.2247 40.0538 83.041Z" fill="url(#paint11_linear)"/>
<path d="M108.806 69.1751C108.051 71.0878 107.018 72.8782 105.742 74.4886C105.002 75.4218 104.168 76.2755 103.252 77.0359C102.635 77.1403 102.008 77.1747 101.384 77.1386C99.0523 76.9873 98.1181 75.0045 98.2419 72.8732C98.3374 71.615 98.7336 70.3984 99.3969 69.3264C99.6661 68.8402 99.9837 68.3647 100.296 67.8812C100.798 67.1319 101.248 66.3484 101.642 65.5365C101.877 65.089 102.023 64.6 102.073 64.0967C102.113 63.2728 101.701 62.5002 101.351 61.7546C100.296 59.5072 99.6876 57.0031 99.9487 54.5341C100.032 53.7237 100.25 52.8539 100.88 52.3406C101.419 51.9003 102.17 51.8003 102.867 51.8625C103.475 51.8795 104.063 52.0874 104.547 52.4568C105.085 52.916 105.325 53.6345 105.43 54.3342C105.699 56.0792 105.231 57.8783 105.535 59.6179C105.569 59.9081 105.671 60.186 105.834 60.4283C106.254 60.9929 107.094 61.028 107.651 61.4629C108.459 62.095 108.424 63.3349 108.138 64.3263C107.853 65.3177 107.395 66.3307 107.629 67.3355C107.794 68.0487 108.294 68.6214 108.806 69.1751Z" fill="#FFBA5F"/>
<path d="M108.806 69.1751C108.051 71.0878 107.018 72.8782 105.742 74.4886C105.002 75.4218 104.168 76.2755 103.252 77.0359C102.635 77.1403 102.008 77.1747 101.384 77.1386C99.0523 76.9873 98.1181 75.0045 98.2419 72.8732C98.3374 71.615 98.7336 70.3984 99.3969 69.3264C99.6661 68.8402 99.9837 68.3647 100.296 67.8812C100.798 67.1319 101.248 66.3484 101.642 65.5365C101.877 65.089 102.023 64.6 102.073 64.0967C102.113 63.2728 101.701 62.5002 101.351 61.7546C100.296 59.5072 99.6876 57.0031 99.9487 54.5341C100.032 53.7237 100.25 52.8539 100.88 52.3406C101.419 51.9003 102.17 51.8003 102.867 51.8625C103.475 51.8795 104.063 52.0874 104.547 52.4568C105.085 52.916 105.325 53.6345 105.43 54.3342C105.699 56.0792 105.231 57.8783 105.535 59.6179C105.569 59.9081 105.671 60.186 105.834 60.4283C106.254 60.9929 107.094 61.028 107.651 61.4629C108.459 62.095 108.424 63.3349 108.138 64.3263C107.853 65.3177 107.395 66.3307 107.629 67.3355C107.794 68.0487 108.294 68.6214 108.806 69.1751Z" fill="url(#paint12_linear)"/>
<path d="M105.758 74.3616L105.742 74.4886C105.002 75.4218 104.168 76.2755 103.252 77.0359V77.0359C101.709 78.2538 100.022 79.2746 98.2284 80.0749C97.1516 80.5746 96.0747 81.0311 94.9736 81.4823C93.4553 80.1505 93.108 77.2358 93.5387 75.1666C93.851 73.6485 94.3867 72.1115 94.0987 70.5906C93.8295 69.1832 92.8953 68.0136 92.0096 66.8925C90.4993 64.9827 88.9998 62.9432 88.5098 60.558C88.0198 58.1727 88.8194 55.3418 90.9704 54.2072C91.2068 54.0632 91.4801 53.9918 91.7565 54.0019C92.0547 54.0613 92.3296 54.2057 92.548 54.4179C94.7264 56.2247 96.2483 58.7035 96.877 61.4683C97.3912 63.7536 97.5527 66.6008 99.6499 67.63C99.8609 67.7313 100.081 67.8127 100.307 67.8731C101.02 68.0757 101.787 68.1432 102.461 68.4296C104.243 69.1967 104.997 71.2794 105.556 73.1433C105.701 73.5327 105.77 73.9463 105.758 74.3616V74.3616Z" fill="#FFBA5F"/>
<path d="M105.758 74.3616L105.742 74.4886C105.002 75.4218 104.168 76.2755 103.252 77.0359V77.0359C101.709 78.2538 100.022 79.2746 98.2284 80.0749C97.1516 80.5746 96.0747 81.0311 94.9736 81.4823C93.4553 80.1505 93.108 77.2358 93.5387 75.1666C93.851 73.6485 94.3867 72.1115 94.0987 70.5906C93.8295 69.1832 92.8953 68.0136 92.0096 66.8925C90.4993 64.9827 88.9998 62.9432 88.5098 60.558C88.0198 58.1727 88.8194 55.3418 90.9704 54.2072C91.2068 54.0632 91.4801 53.9918 91.7565 54.0019C92.0547 54.0613 92.3296 54.2057 92.548 54.4179C94.7264 56.2247 96.2483 58.7035 96.877 61.4683C97.3912 63.7536 97.5527 66.6008 99.6499 67.63C99.8609 67.7313 100.081 67.8127 100.307 67.8731C101.02 68.0757 101.787 68.1432 102.461 68.4296C104.243 69.1967 104.997 71.2794 105.556 73.1433C105.701 73.5327 105.77 73.9463 105.758 74.3616V74.3616Z" fill="url(#paint13_linear)"/>
<path d="M105.758 74.3616L105.742 74.4886C105.002 75.4218 104.168 76.2755 103.252 77.0359V77.0359C101.709 78.2538 100.022 79.2746 98.2284 80.0749C97.1516 80.5746 96.0747 81.0311 94.9736 81.4823C93.4553 80.1505 93.108 77.2358 93.5387 75.1666C93.851 73.6485 94.3867 72.1115 94.0987 70.5906C93.8295 69.1832 92.8953 68.0136 92.0096 66.8925C90.4993 64.9827 88.9998 62.9432 88.5098 60.558C88.0198 58.1727 88.8194 55.3418 90.9704 54.2072C91.2068 54.0632 91.4801 53.9918 91.7565 54.0019C92.0547 54.0613 92.3296 54.2057 92.548 54.4179C94.7264 56.2247 96.2483 58.7035 96.877 61.4683C97.3912 63.7536 97.5527 66.6008 99.6499 67.63C99.8609 67.7313 100.081 67.8127 100.307 67.8731C101.02 68.0757 101.787 68.1432 102.461 68.4296C104.243 69.1967 104.997 71.2794 105.556 73.1433C105.701 73.5327 105.77 73.9463 105.758 74.3616V74.3616Z" fill="#FFBA5F"/>
</g>
<defs>
<linearGradient id="paint0_linear" x1="74.446" y1="54.9876" x2="77.8238" y2="58.7283" gradientUnits="userSpaceOnUse">
<stop offset="0.01"/>
<stop offset="0.13" stop-opacity="0.69"/>
<stop offset="1" stop-opacity="0"/>
</linearGradient>
<linearGradient id="paint1_linear" x1="47.2445" y1="61.887" x2="63.3912" y2="57.6002" gradientUnits="userSpaceOnUse">
<stop offset="0.01"/>
<stop offset="1" stop-opacity="0"/>
</linearGradient>
<linearGradient id="paint2_linear" x1="1027.6" y1="640.206" x2="1074.79" y2="593.04" gradientUnits="userSpaceOnUse">
<stop offset="0.01"/>
<stop offset="1" stop-opacity="0"/>
</linearGradient>
<linearGradient id="paint3_linear" x1="8397.11" y1="3818.8" x2="8410.29" y2="4977.29" gradientUnits="userSpaceOnUse">
<stop offset="0.01"/>
<stop offset="0.13" stop-opacity="0.69"/>
<stop offset="1" stop-opacity="0"/>
</linearGradient>
<linearGradient id="paint4_linear" x1="1337.8" y1="516.203" x2="1333.67" y2="553.876" gradientUnits="userSpaceOnUse">
<stop offset="0.01"/>
<stop offset="1" stop-opacity="0"/>
</linearGradient>
<linearGradient id="paint5_linear" x1="2371.08" y1="2385.16" x2="2483.96" y2="2671.16" gradientUnits="userSpaceOnUse">
<stop offset="0.01"/>
<stop offset="1" stop-opacity="0"/>
</linearGradient>
<linearGradient id="paint6_linear" x1="4506.84" y1="2596.02" x2="4403.4" y2="2268.3" gradientUnits="userSpaceOnUse">
<stop offset="0.01"/>
<stop offset="1" stop-opacity="0"/>
</linearGradient>
<linearGradient id="paint7_linear" x1="413.085" y1="11015.7" x2="526.155" y2="11014.8" gradientUnits="userSpaceOnUse">
<stop offset="0.01"/>
<stop offset="1" stop-opacity="0"/>
</linearGradient>
<linearGradient id="paint8_linear" x1="672.557" y1="1529.22" x2="427.028" y2="1427.79" gradientUnits="userSpaceOnUse">
<stop offset="0.01"/>
<stop offset="1" stop-opacity="0"/>
</linearGradient>
<linearGradient id="paint9_linear" x1="579.869" y1="1133.54" x2="448.256" y2="1157" gradientUnits="userSpaceOnUse">
<stop offset="0.01"/>
<stop offset="1" stop-opacity="0"/>
</linearGradient>
<linearGradient id="paint10_linear" x1="1133.61" y1="451.685" x2="1137.52" y2="405.916" gradientUnits="userSpaceOnUse">
<stop offset="0.01"/>
<stop offset="1" stop-opacity="0"/>
</linearGradient>
<linearGradient id="paint11_linear" x1="8798.12" y1="5269.98" x2="8857.93" y2="2681.06" gradientUnits="userSpaceOnUse">
<stop offset="0.01"/>
<stop offset="1" stop-opacity="0"/>
</linearGradient>
<linearGradient id="paint12_linear" x1="95.4475" y1="77.3223" x2="103.801" y2="62.757" gradientUnits="userSpaceOnUse">
<stop offset="0.01"/>
<stop offset="0.91" stop-opacity="0.03"/>
<stop offset="1" stop-opacity="0"/>
</linearGradient>
<linearGradient id="paint13_linear" x1="5965.67" y1="9613.09" x2="7271.27" y2="7516.08" gradientUnits="userSpaceOnUse">
<stop offset="0.01"/>
<stop offset="0.91" stop-opacity="0.03"/>
<stop offset="1" stop-opacity="0"/>
</linearGradient>
<clipPath id="clip0">
<rect width="111" height="99" fill="white"/>
</clipPath>
</defs>
</svg>
