<svg width="121" height="74" viewBox="0 0 121 74" fill="none" xmlns="http://www.w3.org/2000/svg">
<g clip-path="url(#clip0)">
<path opacity="0.18" d="M119.287 54.1073C118.999 54.7197 118.668 55.3109 118.296 55.8766C118.233 55.9812 118.164 56.0828 118.095 56.1754C114.494 61.4533 107.893 64.0473 101.657 64.9021C94.6412 65.8614 87.4244 65.2159 80.5466 66.9941C75.8264 68.2104 71.4213 70.5295 66.7431 71.9162C61.2577 73.545 55.5052 73.8618 49.8097 73.9694C37.3025 74.1995 24.4652 73.3717 12.9963 68.0968C8.66619 66.1065 4.38709 63.2643 2.00148 59.0355C1.71894 58.5379 1.46642 58.0239 1.24529 57.4964C1.15226 57.2782 1.06524 57.0571 0.984219 56.8359C-1.24235 50.7392 0.672139 43.746 3.12077 37.6851C5.66409 31.4145 8.78838 25.3934 12.4532 19.6999C14.8908 15.9023 17.571 12.2647 20.4772 8.80958C23.478 5.25916 26.1787 1.54735 30.7698 0.755383C36.5733 -0.248776 42.2898 1.8492 47.9913 2.67703C58.2449 4.17132 68.5675 1.40689 78.8752 0.345948C89.1828 -0.714994 100.604 0.345947 108.106 7.8891C111.944 11.7414 114.35 16.9116 116.208 22.1476C116.892 24.0742 117.51 26.0247 118.062 27.9992C119.028 31.4333 119.795 34.9197 120.361 38.4413C121.201 43.6922 121.543 49.3436 119.287 54.1073Z" fill="#FFBA5F"/>
<path opacity="0.25" d="M119.287 54.1081C118.999 54.7205 118.668 55.3117 118.296 55.8774C109.114 56.1902 99.9296 56.506 90.7432 56.8247C62.8631 57.7721 34.9769 58.7374 7.08781 58.3698C4.98727 58.3429 2.71569 58.2473 1.05326 56.8756C1.03262 56.856 1.01055 56.838 0.987245 56.8218C-0.156048 53.6927 -0.213063 50.3276 0.336078 46.9595C0.858212 43.7796 1.92649 40.6118 3.12079 37.659C4.37911 34.5589 5.77947 31.5275 7.32187 28.5648C8.89027 25.5225 10.6007 22.5678 12.4532 19.7007C15.6232 19.1583 18.8796 19.4256 21.9176 20.4778C24.9184 21.5058 27.7481 23.0898 30.8179 23.8608C37.3566 25.4986 44.1533 23.296 50.869 23.1705C57.7264 23.0757 64.4435 25.1083 70.0889 28.9862C73.2698 31.1649 76.1475 33.9233 79.6644 35.4087C83.7514 37.136 88.3846 36.9777 92.6307 35.7643C96.8768 34.5509 100.808 32.3484 104.634 30.0322C107.716 28.1614 112.199 25.1788 115.905 26.6372C116.703 26.9561 117.437 27.418 118.068 28C119.034 31.4341 119.801 34.9205 120.367 38.4421C121.201 43.693 121.543 49.3444 119.287 54.1081Z" fill="#FFBA5F"/>
<path d="M118.095 56.1851C114.494 61.4629 107.893 64.057 101.657 64.9117C94.6412 65.871 87.4244 65.2255 80.5466 67.0037C75.8264 68.22 71.4213 70.5391 66.7431 71.9258C61.2577 73.5546 55.5052 73.8714 49.8098 73.979C37.3026 74.2091 24.4653 73.3813 12.9963 68.1065C8.66622 66.1161 4.38712 63.2739 2.00151 59.0451L0.891228 56.3076L118.095 56.1851Z" fill="url(#paint0_linear)"/>
<path d="M80.4986 43.729H38.3738V51.1676H80.4986V43.729Z" fill="#3E3E54"/>
<path d="M80.4986 43.729H38.3738V51.1676H80.4986V43.729Z" fill="url(#paint1_linear)"/>
<path d="M25.8786 34.204C25.1746 33.5786 24.3159 33.1515 23.391 32.9667C22.6438 32.7754 21.7856 32.6678 21.1494 33.1072C20.9228 33.2799 20.7368 33.5 20.6047 33.752C20.4725 34.0039 20.3972 34.2816 20.3842 34.5656C20.3606 35.1329 20.4483 35.6993 20.6423 36.2332C20.7065 36.5021 20.8423 36.7489 21.0354 36.9475C21.3134 37.1479 21.6494 37.2528 21.9926 37.2463C23.6344 37.3345 25.2801 37.3195 26.9199 37.2015C27.6701 37.1626 27.7601 36.3647 27.31 35.9015C26.7789 35.3576 26.3918 34.727 25.8786 34.204Z" fill="#FFBA5F"/>
<path d="M25.9056 34.24C25.2052 33.6191 24.352 33.1943 23.433 33.0087C22.6828 32.8174 21.8246 32.7098 21.1914 33.1491C20.9652 33.3219 20.7794 33.5415 20.6467 33.7928C20.5141 34.0441 20.4378 34.3211 20.4232 34.6046C20.4007 35.173 20.4893 35.7405 20.6843 36.2752C20.7492 36.5439 20.8849 36.7904 21.0774 36.9895C21.3561 37.1886 21.6917 37.2933 22.0346 37.2883C23.6764 37.3755 25.3221 37.3595 26.9619 37.2405C27.7091 37.2017 27.7991 36.4067 27.352 35.9435C26.8329 35.4025 26.4338 34.76 25.9056 34.24Z" fill="url(#paint2_linear)"/>
<path d="M47.3761 51.3344C47.3761 53.5848 48.0843 55.7157 46.4759 56.415C46.0558 56.5943 43.7452 56.4778 43.2771 56.4778C41.0115 56.4778 39.172 54.1765 39.172 51.3404C39.172 48.5042 41.0115 46.203 43.2771 46.203C43.7002 46.203 46.0408 46.1194 46.4249 46.2688C48.0843 46.9113 47.3761 49.0272 47.3761 51.3344Z" fill="#3E3E54"/>
<path d="M47.3761 51.3347C47.3761 53.585 48.0843 55.7159 46.4759 56.4152C46.0558 56.5945 43.7452 56.478 43.2771 56.478C41.0115 56.478 39.172 54.1768 39.172 51.3406C39.172 48.5045 41.0115 46.2033 43.2771 46.2033C43.7002 46.2033 46.1398 46.1345 46.5239 46.284C48.1953 46.9295 47.3761 49.0275 47.3761 51.3347Z" fill="#3E3E54"/>
<path d="M47.3761 51.3347C47.3761 53.5851 48.0213 55.689 46.4099 56.3853C45.9928 56.5647 43.7422 56.472 43.2741 56.472C41.0085 56.472 39.169 54.1708 39.169 51.3347C39.169 48.4985 41.0085 46.1973 43.2741 46.1973C43.6972 46.1973 45.9748 46.0957 46.3499 46.2451C48.0213 46.8937 47.3761 49.0275 47.3761 51.3347Z" fill="url(#paint3_linear)"/>
<path d="M45.8278 56.472C48.0933 56.472 49.9298 54.1719 49.9298 51.3346C49.9298 48.4973 48.0933 46.1973 45.8278 46.1973C43.5623 46.1973 41.7257 48.4973 41.7257 51.3346C41.7257 54.1719 43.5623 56.472 45.8278 56.472Z" fill="#3E3E54"/>
<path d="M45.9208 54.8848C47.5184 54.8848 48.8135 53.2645 48.8135 51.2656C48.8135 49.2668 47.5184 47.6465 45.9208 47.6465C44.3231 47.6465 43.028 49.2668 43.028 51.2656C43.028 53.2645 44.3231 54.8848 45.9208 54.8848Z" fill="#FFBA5F"/>
<path d="M46.0828 52.9966C46.8601 52.9966 47.4902 52.2085 47.4902 51.2363C47.4902 50.2642 46.8601 49.4761 46.0828 49.4761C45.3055 49.4761 44.6754 50.2642 44.6754 51.2363C44.6754 52.2085 45.3055 52.9966 46.0828 52.9966Z" fill="url(#paint4_linear)"/>
<path d="M77.2518 50.9522C77.2518 53.2025 77.957 55.3334 76.3516 56.0327C75.9315 56.212 73.6179 56.0955 73.1527 56.0955C70.8842 56.0955 69.0477 53.7943 69.0477 50.9581C69.0477 48.122 70.8902 45.8178 73.1497 45.8178C73.5728 45.8178 75.9104 45.7341 76.2975 45.8835C77.969 46.5291 77.2518 48.645 77.2518 50.9522Z" fill="#3E3E54"/>
<path d="M77.2518 50.9519C77.2518 53.2023 77.957 55.3331 76.3516 56.0325C75.9315 56.2118 73.6179 56.0952 73.1527 56.0952C70.8842 56.0952 69.0477 53.794 69.0477 50.9579C69.0477 48.1217 70.8902 45.8175 73.1497 45.8175C73.5728 45.8175 76.0125 45.7488 76.3966 45.8982C78.071 46.5438 77.2518 48.6447 77.2518 50.9519Z" fill="#3E3E54"/>
<path d="M77.2518 50.9518C77.2518 53.2022 77.897 55.3062 76.2856 55.9995C75.8684 56.1818 73.6149 56.0892 73.1497 56.0892C70.8812 56.0892 69.0447 53.788 69.0447 50.9518C69.0447 48.1156 70.8902 45.8174 73.1497 45.8174C73.5729 45.8174 75.8504 45.7158 76.2255 45.8653C77.897 46.5108 77.2518 48.6446 77.2518 50.9518Z" fill="url(#paint5_linear)"/>
<path d="M75.7034 56.0862C77.9689 56.0862 79.8055 53.7862 79.8055 50.9489C79.8055 48.1116 77.9689 45.8115 75.7034 45.8115C73.4379 45.8115 71.6013 48.1116 71.6013 50.9489C71.6013 53.7862 73.4379 56.0862 75.7034 56.0862Z" fill="#3E3E54"/>
<path d="M75.7964 54.5025C77.394 54.5025 78.6892 52.8821 78.6892 50.8833C78.6892 48.8845 77.394 47.2642 75.7964 47.2642C74.1988 47.2642 72.9037 48.8845 72.9037 50.8833C72.9037 52.8821 74.1988 54.5025 75.7964 54.5025Z" fill="#FFBA5F"/>
<path d="M75.9585 52.6138C76.7357 52.6138 77.3658 51.8257 77.3658 50.8535C77.3658 49.8814 76.7357 49.0933 75.9585 49.0933C75.1812 49.0933 74.5511 49.8814 74.5511 50.8535C74.5511 51.8257 75.1812 52.6138 75.9585 52.6138Z" fill="url(#paint6_linear)"/>
<path d="M29.3625 51.3344C29.3625 53.5848 30.0707 55.7157 28.4623 56.415C28.0452 56.5943 25.7316 56.4778 25.2635 56.4778C22.9979 56.4778 21.1614 54.1765 21.1614 51.3404C21.1614 48.5042 22.9979 46.203 25.2635 46.203C25.6866 46.203 28.0272 46.1194 28.4113 46.2688C30.0797 46.9113 29.3625 49.0272 29.3625 51.3344Z" fill="#3E3E54"/>
<path d="M29.3625 51.3347C29.3625 53.585 30.0707 55.7159 28.4623 56.4152C28.0452 56.5945 25.7316 56.478 25.2635 56.478C22.9979 56.478 21.1614 54.1768 21.1614 51.3406C21.1614 48.5045 22.9979 46.2033 25.2635 46.2033C25.6866 46.2033 28.1292 46.1345 28.5133 46.284C30.1817 46.9295 29.3625 49.0275 29.3625 51.3347Z" fill="#3E3E54"/>
<path d="M29.3625 51.3347C29.3625 53.5851 30.0077 55.689 28.3963 56.3853C27.9792 56.5647 25.7286 56.472 25.2605 56.472C22.9949 56.472 21.1584 54.1708 21.1584 51.3347C21.1584 48.4985 22.9949 46.1973 25.2605 46.1973C25.6836 46.1973 27.9612 46.0957 28.3362 46.2451C30.0107 46.8937 29.3625 49.0275 29.3625 51.3347Z" fill="url(#paint7_linear)"/>
<path d="M27.8141 56.472C30.0796 56.472 31.9162 54.1719 31.9162 51.3346C31.9162 48.4973 30.0796 46.1973 27.8141 46.1973C25.5486 46.1973 23.7121 48.4973 23.7121 51.3346C23.7121 54.1719 25.5486 56.472 27.8141 56.472Z" fill="#3E3E54"/>
<path d="M27.9072 54.8848C29.5048 54.8848 30.7999 53.2645 30.7999 51.2656C30.7999 49.2668 29.5048 47.6465 27.9072 47.6465C26.3095 47.6465 25.0144 49.2668 25.0144 51.2656C25.0144 53.2645 26.3095 54.8848 27.9072 54.8848Z" fill="#FFBA5F"/>
<path d="M28.0692 52.9966C28.8465 52.9966 29.4765 52.2085 29.4765 51.2363C29.4765 50.2642 28.8465 49.4761 28.0692 49.4761C27.2919 49.4761 26.6618 50.2642 26.6618 51.2363C26.6618 52.2085 27.2919 52.9966 28.0692 52.9966Z" fill="url(#paint8_linear)"/>
<path d="M59.2382 50.9522C59.2382 53.2025 59.9464 55.3334 58.3379 56.0327C57.9178 56.212 55.6072 56.0955 55.1391 56.0955C52.8735 56.0955 51.0341 53.7943 51.0341 50.9581C51.0341 48.122 52.8855 45.8178 55.1361 45.8178C55.5592 45.8178 57.8998 45.7341 58.2839 45.8835C59.9554 46.5291 59.2382 48.645 59.2382 50.9522Z" fill="#3E3E54"/>
<path d="M59.2382 50.9519C59.2382 53.2023 59.9464 55.3331 58.3379 56.0325C57.9178 56.2118 55.6072 56.0952 55.1391 56.0952C52.8735 56.0952 51.0341 53.794 51.0341 50.9579C51.0341 48.1217 52.8855 45.8175 55.1361 45.8175C55.5592 45.8175 57.9989 45.7488 58.386 45.8982C60.0574 46.5438 59.2382 48.6447 59.2382 50.9519Z" fill="#3E3E54"/>
<path d="M59.2382 50.9518C59.2382 53.2022 59.8834 55.3062 58.2719 55.9995C57.8548 56.1818 55.6043 56.0892 55.1361 56.0892C52.8706 56.0892 51.0311 53.788 51.0311 50.9518C51.0311 48.1156 52.8856 45.8174 55.1361 45.8174C55.5592 45.8174 57.8368 45.7158 58.2119 45.8653C59.8864 46.5108 59.2382 48.6446 59.2382 50.9518Z" fill="url(#paint9_linear)"/>
<path d="M57.6898 56.0862C59.9553 56.0862 61.7918 53.7862 61.7918 50.9489C61.7918 48.1116 59.9553 45.8115 57.6898 45.8115C55.4243 45.8115 53.5877 48.1116 53.5877 50.9489C53.5877 53.7862 55.4243 56.0862 57.6898 56.0862Z" fill="#3E3E54"/>
<path d="M57.7828 54.5025C59.3804 54.5025 60.6756 52.8821 60.6756 50.8833C60.6756 48.8845 59.3804 47.2642 57.7828 47.2642C56.1852 47.2642 54.8901 48.8845 54.8901 50.8833C54.8901 52.8821 56.1852 54.5025 57.7828 54.5025Z" fill="#FFBA5F"/>
<path d="M57.9448 52.6138C58.7221 52.6138 59.3522 51.8257 59.3522 50.8535C59.3522 49.8814 58.7221 49.0933 57.9448 49.0933C57.1676 49.0933 56.5375 49.8814 56.5375 50.8535C56.5375 51.8257 57.1676 52.6138 57.9448 52.6138Z" fill="url(#paint10_linear)"/>
<path d="M81.7859 38.4781V51.1675H80.4926C80.5278 50.9321 80.5449 50.6943 80.5436 50.4563C80.5436 49.0097 79.9666 47.6224 78.9396 46.5996C77.9126 45.5767 76.5197 45.0021 75.0672 45.0021C73.6148 45.0021 72.2218 45.5767 71.1948 46.5996C70.1678 47.6224 69.5908 49.0097 69.5908 50.4563C69.5886 50.6942 69.6046 50.932 69.6388 51.1675H51.3852C51.4204 50.9321 51.4374 50.6943 51.4362 50.4563C51.4533 49.7291 51.3242 49.0058 51.0566 48.329C50.789 47.6522 50.3882 47.0355 49.8779 46.5152C49.3675 45.9949 48.7578 45.5814 48.0847 45.2991C47.4116 45.0168 46.6886 44.8714 45.9583 44.8714C45.2279 44.8714 44.5049 45.0168 43.8318 45.2991C43.1587 45.5814 42.549 45.9949 42.0387 46.5152C41.5283 47.0355 41.1275 47.6522 40.8599 48.329C40.5923 49.0058 40.4633 49.7291 40.4804 50.4563C40.4791 50.6943 40.4962 50.9321 40.5314 51.1675H16.9813C16.9813 51.1675 16.9813 51.1287 16.9573 51.054C16.7803 50.1873 15.775 44.5837 18.3017 40.5551C18.3017 40.5551 26.3167 29.3988 42.4639 24.8024C53.2156 21.748 63.6223 22.3248 69.9599 23.6338C73.1437 24.2913 75.3043 25.1281 75.9614 25.7886C77.942 27.7581 81.7859 38.4781 81.7859 38.4781Z" fill="#FFBA5F"/>
<path d="M75.8654 38.3672H74.8032C74.2016 38.3672 73.7139 38.8529 73.7139 39.452V40.7282C73.7139 41.3273 74.2016 41.813 74.8032 41.813H75.8654C76.467 41.813 76.9547 41.3273 76.9547 40.7282V39.452C76.9547 38.8529 76.467 38.3672 75.8654 38.3672Z" fill="url(#paint11_linear)"/>
<path d="M66.41 36.7834V49.4729L51.7063 49.3085C51.7063 49.3085 51.9763 44.228 45.1376 43.7289L44.6334 36.6729L66.41 36.7834Z" fill="url(#paint12_linear)"/>
<path d="M22.6408 36.7832H40.3243C40.3243 36.7832 50.1548 22.6174 69.4858 24.4763L72.8346 24.3119C72.8346 24.3119 49.2846 16.7658 27.1419 33.173L22.6408 36.7832Z" fill="url(#paint13_linear)"/>
<path d="M43.013 36.7833H66.419V25.4596C66.419 25.4596 52.4594 24.4763 43.013 36.7833Z" fill="url(#paint14_linear)"/>
<path d="M68.1115 25.3521V36.619H79.6434C79.6434 36.619 75.6344 27.8684 74.3711 27.1571C73.1077 26.4459 68.1115 25.3521 68.1115 25.3521Z" fill="url(#paint15_linear)"/>
<path d="M69.9599 23.7981L69.9239 23.8758C69.9239 23.8758 54.3199 22.3427 42.1338 36.7267C42.1338 36.7267 34.8869 41.2663 35.106 51.2213H16.9573C16.7803 50.3546 15.775 44.751 18.3017 40.7224C18.3017 40.7224 26.3167 29.5661 42.4639 24.9697C53.2156 21.9094 63.6223 22.4892 69.9599 23.7981Z" fill="url(#paint16_linear)"/>
<path d="M17.8006 41.5142C17.8006 41.5142 19.385 42.2314 19.7151 43.5852C19.864 44.1034 19.9743 44.6318 20.0451 45.1662L16.8103 44.1381C16.8103 44.1381 17.4495 41.8011 17.8006 41.5142Z" fill="#FFBA5F"/>
<path d="M37.3866 41.8427C37.3866 41.8427 33.9267 41.3915 33.0595 43.071C32.1923 44.7506 32.1592 45.3692 32.1592 45.3692C32.1592 45.3692 36.1143 44.4249 36.7744 43.9736C37.4346 43.5223 39.5681 41.8816 37.3866 41.8427Z" fill="#FFBA5F"/>
<path d="M19.8111 41.7863L20.9934 45.3696L24.4263 47.5572L27.172 47.4466L31.124 45.2321L33.1585 41.6787L19.8111 41.7863Z" fill="#FFBA5F"/>
<path d="M44.8195 34.4015C45.5517 33.6783 46.5539 33.2958 47.5532 33.0388C48.3814 32.8266 49.3326 32.71 50.0348 33.1971C50.2851 33.3882 50.4904 33.6313 50.6366 33.9095C50.7827 34.1877 50.8662 34.4943 50.881 34.808C50.9045 35.4364 50.8025 36.0631 50.581 36.6519C50.5098 36.9494 50.3607 37.2226 50.1489 37.4439C49.839 37.6628 49.4663 37.776 49.0866 37.7667C47.2709 37.8648 45.4507 37.8478 43.6372 37.7159C42.809 37.674 42.7099 36.7924 43.2081 36.2784C43.7932 35.6866 44.2343 34.9783 44.8195 34.4015Z" fill="#FFBA5F"/>
<path d="M44.7835 34.4434C45.5157 33.7202 46.5179 33.3346 47.5172 33.0806C48.3484 32.8684 49.2966 32.7519 49.9988 33.236C50.2492 33.4277 50.4549 33.6713 50.6015 33.95C50.7481 34.2286 50.8322 34.5356 50.848 34.8498C50.8696 35.4781 50.7677 36.1045 50.5479 36.6938C50.4764 36.9908 50.3262 37.2633 50.1128 37.4828C49.8043 37.7025 49.4327 37.8167 49.0536 37.8085C47.2378 37.9051 45.4178 37.8882 43.6042 37.7577C42.773 37.7159 42.6739 36.8342 43.1721 36.3202C43.7512 35.7285 44.1833 35.0202 44.7835 34.4434Z" fill="url(#paint17_linear)"/>
<path d="M39.3551 49.0601H17.4585C16.7259 49.0601 16.1321 49.6515 16.1321 50.381V50.5274C16.1321 51.257 16.7259 51.8484 17.4585 51.8484H39.3551C40.0876 51.8484 40.6814 51.257 40.6814 50.5274V50.381C40.6814 49.6515 40.0876 49.0601 39.3551 49.0601Z" fill="#FFBA5F"/>
<path d="M39.3551 49.0601H17.4585C16.7259 49.0601 16.1321 49.6515 16.1321 50.381V50.5274C16.1321 51.257 16.7259 51.8484 17.4585 51.8484H39.3551C40.0876 51.8484 40.6814 51.257 40.6814 50.5274V50.381C40.6814 49.6515 40.0876 49.0601 39.3551 49.0601Z" fill="url(#paint18_linear)"/>
<path d="M34.4368 49.0601H17.3144C16.6615 49.0601 16.1321 49.5872 16.1321 50.2376V50.6709C16.1321 51.3212 16.6615 51.8484 17.3144 51.8484H34.4368C35.0898 51.8484 35.6191 51.3212 35.6191 50.6709V50.2376C35.6191 49.5872 35.0898 49.0601 34.4368 49.0601Z" fill="url(#paint19_linear)"/>
<path d="M68.8766 49.3081H51.6972C51.0724 49.3081 50.5659 49.8125 50.5659 50.4348V50.644C50.5659 51.2663 51.0724 51.7707 51.6972 51.7707H68.8766C69.5014 51.7707 70.0079 51.2663 70.0079 50.644V50.4348C70.0079 49.8125 69.5014 49.3081 68.8766 49.3081Z" fill="#FFBA5F"/>
<path d="M68.8766 49.3081H51.6972C51.0724 49.3081 50.5659 49.8125 50.5659 50.4348V50.644C50.5659 51.2663 51.0724 51.7707 51.6972 51.7707H68.8766C69.5014 51.7707 70.0079 51.2663 70.0079 50.644V50.4348C70.0079 49.8125 69.5014 49.3081 68.8766 49.3081Z" fill="url(#paint20_linear)"/>
<path d="M64.9817 38.7231H61.0266V39.8708H64.9817V38.7231Z" fill="url(#paint21_linear)"/>
<path d="M104.823 15.5884H105.159C106.818 15.5884 108.409 16.2445 109.582 17.4124C110.755 18.5803 111.415 20.1645 111.416 21.8166V54.7207H98.5632V21.8166C98.5636 20.9983 98.7259 20.1881 99.0407 19.4322C99.3554 18.6764 99.8166 17.9897 100.398 17.4113C100.979 16.833 101.669 16.3743 102.428 16.0616C103.188 15.7488 104.001 15.588 104.823 15.5884V15.5884Z" fill="#FFBA5F"/>
<path d="M104.823 15.5884H105.159C106.818 15.5884 108.409 16.2445 109.582 17.4124C110.755 18.5803 111.415 20.1645 111.416 21.8166V54.7207H98.5632V21.8166C98.5636 20.9983 98.7259 20.1881 99.0407 19.4322C99.3554 18.6764 99.8166 17.9897 100.398 17.4113C100.979 16.833 101.669 16.3743 102.428 16.0616C103.188 15.7488 104.001 15.588 104.823 15.5884V15.5884Z" fill="url(#paint22_linear)"/>
<path d="M105.948 33.2266H103.923C103.132 33.2266 102.491 33.8648 102.491 34.6521V35.6832C102.491 36.4705 103.132 37.1087 103.923 37.1087H105.948C106.739 37.1087 107.38 36.4705 107.38 35.6832V34.6521C107.38 33.8648 106.739 33.2266 105.948 33.2266Z" fill="url(#paint23_linear)"/>
<path d="M113.915 53.0801H96.1206V56.0328H113.915V53.0801Z" fill="#FFBA5F"/>
<path d="M105.057 28.0567C108.287 28.0567 110.905 25.4489 110.905 22.232C110.905 19.015 108.287 16.4072 105.057 16.4072C101.827 16.4072 99.2084 19.015 99.2084 22.232C99.2084 25.4489 101.827 28.0567 105.057 28.0567Z" fill="url(#paint24_linear)"/>
<path d="M94.3892 49.5447H86.1521C85.4122 49.5439 84.7028 49.2508 84.1796 48.7298C83.6564 48.2087 83.3622 47.5022 83.3614 46.7653V42.0075C83.3606 41.6571 83.2207 41.3213 82.9722 41.0733C82.7237 40.8252 82.3868 40.6852 82.035 40.6836H76.5136C76.4137 40.69 76.3136 40.6759 76.2194 40.6422C76.1251 40.6085 76.0389 40.5559 75.9659 40.4877C75.8928 40.4195 75.8347 40.3371 75.7949 40.2457C75.7551 40.1542 75.7346 40.0556 75.7346 39.9559C75.7346 39.8562 75.7551 39.7575 75.7949 39.6661C75.8347 39.5746 75.8928 39.4922 75.9659 39.424C76.0389 39.3558 76.1251 39.3032 76.2194 39.2695C76.3136 39.2359 76.4137 39.2218 76.5136 39.2281H82.035C82.7744 39.2297 83.483 39.5232 84.0055 40.0441C84.5281 40.5651 84.8219 41.2711 84.8227 42.0075V46.7653C84.8235 47.1159 84.9639 47.4519 85.2131 47.6996C85.4624 47.9472 85.8 48.0863 86.1521 48.0863H94.3892C94.7412 48.0863 95.0789 47.9472 95.3281 47.6996C95.5773 47.4519 95.7177 47.1159 95.7185 46.7653C95.7193 46.0284 96.0136 45.3219 96.5368 44.8009C97.06 44.2798 97.7694 43.9867 98.5093 43.9859H102.929C103.282 43.9852 103.619 43.8454 103.868 43.5973C104.118 43.3492 104.258 43.0129 104.259 42.662V35.1547C104.271 34.9698 104.353 34.7963 104.489 34.6695C104.624 34.5427 104.803 34.4722 104.989 34.4722C105.175 34.4722 105.355 34.5427 105.49 34.6695C105.626 34.7963 105.708 34.9698 105.72 35.1547V42.662C105.719 43.3989 105.425 44.1054 104.902 44.6265C104.379 45.1475 103.669 45.4406 102.929 45.4414H98.4972C98.1449 45.4422 97.8073 45.5819 97.5581 45.83C97.309 46.0781 97.1687 46.4144 97.1679 46.7653C97.1671 47.5001 96.8745 48.2048 96.3539 48.7256C95.8333 49.2463 95.127 49.5407 94.3892 49.5447V49.5447Z" fill="#FFBA5F"/>
<path d="M94.3892 49.5447H86.1521C85.4122 49.5439 84.7028 49.2508 84.1796 48.7298C83.6564 48.2087 83.3622 47.5022 83.3614 46.7653V42.0075C83.3606 41.6571 83.2207 41.3213 82.9722 41.0733C82.7237 40.8252 82.3868 40.6852 82.035 40.6836H76.5136C76.4137 40.69 76.3136 40.6759 76.2194 40.6422C76.1251 40.6085 76.0389 40.5559 75.9659 40.4877C75.8928 40.4195 75.8347 40.3371 75.7949 40.2457C75.7551 40.1542 75.7346 40.0556 75.7346 39.9559C75.7346 39.8562 75.7551 39.7575 75.7949 39.6661C75.8347 39.5746 75.8928 39.4922 75.9659 39.424C76.0389 39.3558 76.1251 39.3032 76.2194 39.2695C76.3136 39.2359 76.4137 39.2218 76.5136 39.2281H82.035C82.7744 39.2297 83.483 39.5232 84.0055 40.0441C84.5281 40.5651 84.8219 41.2711 84.8227 42.0075V46.7653C84.8235 47.1159 84.9639 47.4519 85.2131 47.6996C85.4624 47.9472 85.8 48.0863 86.1521 48.0863H94.3892C94.7412 48.0863 95.0789 47.9472 95.3281 47.6996C95.5773 47.4519 95.7177 47.1159 95.7185 46.7653C95.7193 46.0284 96.0136 45.3219 96.5368 44.8009C97.06 44.2798 97.7694 43.9867 98.5093 43.9859H102.929C103.282 43.9852 103.619 43.8454 103.868 43.5973C104.118 43.3492 104.258 43.0129 104.259 42.662V35.1547C104.271 34.9698 104.353 34.7963 104.489 34.6695C104.624 34.5427 104.803 34.4722 104.989 34.4722C105.175 34.4722 105.355 34.5427 105.49 34.6695C105.626 34.7963 105.708 34.9698 105.72 35.1547V42.662C105.719 43.3989 105.425 44.1054 104.902 44.6265C104.379 45.1475 103.669 45.4406 102.929 45.4414H98.4972C98.1449 45.4422 97.8073 45.5819 97.5581 45.83C97.309 46.0781 97.1687 46.4144 97.1679 46.7653C97.1671 47.5001 96.8745 48.2048 96.3539 48.7256C95.8333 49.2463 95.127 49.5407 94.3892 49.5447V49.5447Z" fill="url(#paint25_linear)"/>
<path d="M77.0327 38.7109H75.8474C75.2989 38.7109 74.8542 39.1538 74.8542 39.7002V40.1006C74.8542 40.6469 75.2989 41.0898 75.8474 41.0898H77.0327C77.5813 41.0898 78.026 40.6469 78.026 40.1006V39.7002C78.026 39.1538 77.5813 38.7109 77.0327 38.7109Z" fill="#FFBA5F"/>
<path d="M77.0327 38.7109H75.8474C75.2989 38.7109 74.8542 39.1538 74.8542 39.7002V40.1006C74.8542 40.6469 75.2989 41.0898 75.8474 41.0898H77.0327C77.5813 41.0898 78.026 40.6469 78.026 40.1006V39.7002C78.026 39.1538 77.5813 38.7109 77.0327 38.7109Z" fill="url(#paint26_linear)"/>
<path d="M105.06 18.9657L103.452 22.2053H104.688L103.947 25.2417L106.623 21.8377L105.471 21.754L107.16 18.9238L105.06 18.9657Z" fill="white"/>
<path d="M16.5763 59.0185C16.1591 59.2367 15.676 59.6162 15.8321 60.0705C15.9028 60.2401 16.0217 60.3855 16.1742 60.4889C17.4765 61.511 19.2529 61.6574 20.9184 61.7172C31.9822 62.1834 43.061 61.5259 54.1129 60.8684C54.5735 60.8836 55.0287 60.7663 55.4242 60.5307C55.7933 60.2588 55.9523 59.6611 55.6223 59.3353C62.424 59.4728 69.2347 59.4319 76.0545 59.2128C76.9967 59.1829 78.155 59.0096 78.4761 58.1279C78.7492 57.3987 78.224 56.5679 77.5249 56.2212C76.8257 55.8745 76.0065 55.8865 75.2233 55.9074C66.8811 56.1345 58.535 56.2581 50.1849 56.278C46.0338 56.278 41.8837 56.2581 37.7347 56.2182C33.8337 56.1764 29.6806 56.4663 25.8066 55.9194C25.3145 55.8476 24.6513 55.5368 24.1832 55.8536C23.8231 56.0957 23.9701 56.6187 23.7421 56.8309C23.376 57.1716 23.0129 57.1058 22.4578 57.1835C20.4056 57.4524 18.4157 58.0732 16.5763 59.0185V59.0185Z" fill="url(#paint27_linear)"/>
<path d="M13.9986 41.8702C13.8507 42.5432 13.5062 43.1577 13.0086 43.6362C12.511 44.1148 11.8824 44.4362 11.2019 44.5599C11.4424 44.6891 11.6551 44.8641 11.8278 45.0751C12.0004 45.2861 12.1297 45.5289 12.2081 45.7896C12.2865 46.0503 12.3127 46.3239 12.2849 46.5946C12.2572 46.8654 12.1762 47.1281 12.0466 47.3677C11.9169 47.6073 11.7412 47.8191 11.5293 47.9911C11.3175 48.163 11.0737 48.2917 10.8119 48.3698C10.5501 48.448 10.2755 48.474 10.0036 48.4464C9.7317 48.4188 9.46794 48.3381 9.22736 48.209C8.74124 47.931 8.32713 47.4439 7.75999 47.4469C7.45881 47.4851 7.1659 47.5719 6.89276 47.7039C6.33944 47.8856 5.74231 47.8864 5.18847 47.7063C4.63464 47.5262 4.15306 47.1746 3.81398 46.7027C2.80572 47.3602 1.39536 47.8982 0.480121 47.1211C0.436912 47.0836 0.395838 47.0437 0.35709 47.0016C0.912232 43.8218 2.04352 40.6539 3.31285 37.7012C4.64919 34.601 6.12957 31.5696 7.75398 28.6069C8.06957 28.565 8.38994 28.5751 8.70223 28.6368C9.52444 28.7892 10.3166 29.8831 10.6077 30.5914C10.8228 31.1381 10.9047 31.7279 10.8468 32.3123C10.7889 32.8967 10.5928 33.4591 10.2746 33.9535C12.0301 34.4705 13.1014 36.6073 12.4622 38.3138C13.0418 38.6897 13.4969 39.2279 13.7703 39.8607C14.0436 40.4935 14.1231 41.1926 13.9986 41.8702V41.8702Z" fill="#FFBA5F"/>
<path d="M13.9986 41.8702C13.8507 42.5432 13.5062 43.1577 13.0086 43.6362C12.511 44.1148 11.8824 44.4362 11.2019 44.5599C11.4424 44.6891 11.6551 44.8641 11.8278 45.0751C12.0004 45.2861 12.1297 45.5289 12.2081 45.7896C12.2865 46.0503 12.3127 46.3239 12.2849 46.5946C12.2572 46.8654 12.1762 47.1281 12.0466 47.3677C11.9169 47.6073 11.7412 47.8191 11.5293 47.9911C11.3175 48.163 11.0737 48.2917 10.8119 48.3698C10.5501 48.448 10.2755 48.474 10.0036 48.4464C9.7317 48.4188 9.46794 48.3381 9.22736 48.209C8.74124 47.931 8.32713 47.4439 7.75999 47.4469C7.45881 47.4851 7.1659 47.5719 6.89276 47.7039C6.33944 47.8856 5.74231 47.8864 5.18847 47.7063C4.63464 47.5262 4.15306 47.1746 3.81398 46.7027C2.80572 47.3602 1.39536 47.8982 0.480121 47.1211C0.436912 47.0836 0.395838 47.0437 0.35709 47.0016C0.912232 43.8218 2.04352 40.6539 3.31285 37.7012C4.64919 34.601 6.12957 31.5696 7.75398 28.6069C8.06957 28.565 8.38994 28.5751 8.70223 28.6368C9.52444 28.7892 10.3166 29.8831 10.6077 30.5914C10.8228 31.1381 10.9047 31.7279 10.8468 32.3123C10.7889 32.8967 10.5928 33.4591 10.2746 33.9535C12.0301 34.4705 13.1014 36.6073 12.4622 38.3138C13.0418 38.6897 13.4969 39.2279 13.7703 39.8607C14.0436 40.4935 14.1231 41.1926 13.9986 41.8702V41.8702Z" fill="url(#paint28_linear)"/>
<path d="M7.53794 41.8698C6.57774 42.5387 5.80925 43.4454 5.30828 44.5004C4.80731 45.5554 4.59118 46.7222 4.68121 47.8858C4.90026 52.0429 6.32863 56.5288 6.32863 56.5288H1.04728C1.04728 56.5288 3.03378 48.9796 2.15456 46.3676C1.27533 43.7556 1.22132 44.2756 1.22132 44.2756L2.7037 45.1363L3.15682 39.9661C3.15682 39.9661 3.52891 42.357 3.52891 43.2894C3.52891 44.2218 7.19285 38.7378 7.19285 38.7378L4.49216 44.0694L7.53794 41.8698Z" fill="#FFBA5F"/>
<path d="M55.9403 45.9882C56.7884 46.2073 57.6858 46.1357 58.488 45.785C58.8843 45.6065 59.2378 45.3456 59.5245 45.0198C59.8112 44.6941 60.0246 44.3109 60.1504 43.8962C60.3815 43.0654 60.2014 42.1838 60.1504 41.326C59.0619 41.1965 57.9583 41.3521 56.9486 41.7773C56.4461 41.996 55.9993 42.3244 55.6414 42.7383C55.2836 43.1521 55.0237 43.6408 54.8811 44.1682C54.8438 44.5708 54.9443 44.9742 55.1661 45.3128C55.9043 44.0546 57.4677 43.5466 58.497 42.5095C57.8578 43.5376 56.9246 44.3475 56.0034 45.1365C55.8328 45.2538 55.7028 45.4209 55.6313 45.6147C55.6193 45.6604 55.6184 45.7082 55.6286 45.7544C55.6389 45.8005 55.6599 45.8435 55.6901 45.88C55.7202 45.9164 55.7586 45.9453 55.8021 45.9641C55.8456 45.9829 55.893 45.9912 55.9403 45.9882Z" fill="#FFBA5F"/>
</g>
<defs>
<linearGradient id="paint0_linear" x1="-5.47941" y1="14.7904" x2="311.73" y2="229.249" gradientUnits="userSpaceOnUse">
<stop offset="0.01"/>
<stop offset="0.13" stop-opacity="0.69"/>
<stop offset="1" stop-opacity="0"/>
</linearGradient>
<linearGradient id="paint1_linear" x1="8346.23" y1="1358.94" x2="8349.85" y2="926.415" gradientUnits="userSpaceOnUse">
<stop offset="0.01"/>
<stop offset="0.13" stop-opacity="0.69"/>
<stop offset="1" stop-opacity="0"/>
</linearGradient>
<linearGradient id="paint2_linear" x1="-21027.6" y1="962.718" x2="-21027.6" y2="894.028" gradientUnits="userSpaceOnUse">
<stop offset="0.01"/>
<stop offset="0.13" stop-opacity="0.69"/>
<stop offset="1" stop-opacity="0"/>
</linearGradient>
<linearGradient id="paint3_linear" x1="1230.11" y1="2640.42" x2="1500.99" y2="2629.24" gradientUnits="userSpaceOnUse">
<stop offset="0.01"/>
<stop offset="0.13" stop-opacity="0.69"/>
<stop offset="1" stop-opacity="0"/>
</linearGradient>
<linearGradient id="paint4_linear" x1="491.963" y1="612.129" x2="413.817" y2="748.241" gradientUnits="userSpaceOnUse">
<stop offset="0.01"/>
<stop offset="0.13" stop-opacity="0.69"/>
<stop offset="1" stop-opacity="0"/>
</linearGradient>
<linearGradient id="paint5_linear" x1="2089.79" y1="2625.97" x2="2360.66" y2="2614.8" gradientUnits="userSpaceOnUse">
<stop offset="0.01"/>
<stop offset="0.13" stop-opacity="0.69"/>
<stop offset="1" stop-opacity="0"/>
</linearGradient>
<linearGradient id="paint6_linear" x1="802.076" y1="607.239" x2="723.93" y2="743.352" gradientUnits="userSpaceOnUse">
<stop offset="0.01"/>
<stop offset="0.13" stop-opacity="0.69"/>
<stop offset="1" stop-opacity="0"/>
</linearGradient>
<linearGradient id="paint7_linear" x1="711.604" y1="2640.42" x2="982.38" y2="2629.25" gradientUnits="userSpaceOnUse">
<stop offset="0.01"/>
<stop offset="0.13" stop-opacity="0.69"/>
<stop offset="1" stop-opacity="0"/>
</linearGradient>
<linearGradient id="paint8_linear" x1="304.982" y1="612.129" x2="226.836" y2="748.241" gradientUnits="userSpaceOnUse">
<stop offset="0.01"/>
<stop offset="0.13" stop-opacity="0.69"/>
<stop offset="1" stop-opacity="0"/>
</linearGradient>
<linearGradient id="paint9_linear" x1="1571.44" y1="2625.97" x2="1842.31" y2="2614.79" gradientUnits="userSpaceOnUse">
<stop offset="0.01"/>
<stop offset="0.13" stop-opacity="0.69"/>
<stop offset="1" stop-opacity="0"/>
</linearGradient>
<linearGradient id="paint10_linear" x1="615.091" y1="607.239" x2="536.945" y2="743.352" gradientUnits="userSpaceOnUse">
<stop offset="0.01"/>
<stop offset="0.13" stop-opacity="0.69"/>
<stop offset="1" stop-opacity="0"/>
</linearGradient>
<linearGradient id="paint11_linear" x1="860.458" y1="481.396" x2="998.898" y2="569.043" gradientUnits="userSpaceOnUse">
<stop offset="0.01"/>
<stop offset="0.13" stop-opacity="0.69"/>
<stop offset="1" stop-opacity="0"/>
</linearGradient>
<linearGradient id="paint12_linear" x1="4013.42" y1="3555.66" x2="4131.56" y2="2457.17" gradientUnits="userSpaceOnUse">
<stop offset="0.01"/>
<stop offset="0.13" stop-opacity="0.69"/>
<stop offset="1" stop-opacity="0"/>
</linearGradient>
<linearGradient id="paint13_linear" x1="7821.76" y1="2035.94" x2="7986.35" y2="4212.59" gradientUnits="userSpaceOnUse">
<stop offset="0.01"/>
<stop offset="0.13" stop-opacity="0.69"/>
<stop offset="1" stop-opacity="0"/>
</linearGradient>
<linearGradient id="paint14_linear" x1="4425.55" y1="1578.89" x2="4458.79" y2="3281.11" gradientUnits="userSpaceOnUse">
<stop offset="0.01"/>
<stop offset="0.13" stop-opacity="0.69"/>
<stop offset="1" stop-opacity="0"/>
</linearGradient>
<linearGradient id="paint15_linear" x1="3170.21" y1="1809.58" x2="2594.01" y2="2692.1" gradientUnits="userSpaceOnUse">
<stop offset="0.01"/>
<stop offset="0.13" stop-opacity="0.69"/>
<stop offset="1" stop-opacity="0"/>
</linearGradient>
<linearGradient id="paint16_linear" x1="8649.99" y1="8077.87" x2="8354.28" y2="3851.18" gradientUnits="userSpaceOnUse">
<stop offset="0.01"/>
<stop offset="0.13" stop-opacity="0.69"/>
<stop offset="1" stop-opacity="0"/>
</linearGradient>
<linearGradient id="paint17_linear" x1="1343.26" y1="1070.7" x2="1343.26" y2="986.707" gradientUnits="userSpaceOnUse">
<stop offset="0.01"/>
<stop offset="0.13" stop-opacity="0.69"/>
<stop offset="1" stop-opacity="0"/>
</linearGradient>
<linearGradient id="paint18_linear" x1="2761.23" y1="461.12" x2="2751.96" y2="561.327" gradientUnits="userSpaceOnUse">
<stop offset="0.01"/>
<stop offset="0.13" stop-opacity="0.69"/>
<stop offset="1" stop-opacity="0"/>
</linearGradient>
<linearGradient id="paint19_linear" x1="1699.42" y1="496.114" x2="1699.2" y2="581.881" gradientUnits="userSpaceOnUse">
<stop offset="0.01"/>
<stop offset="0.13" stop-opacity="0.69"/>
<stop offset="1" stop-opacity="0"/>
</linearGradient>
<linearGradient id="paint20_linear" x1="3950.43" y1="450.61" x2="3950.72" y2="494.434" gradientUnits="userSpaceOnUse">
<stop offset="0.01"/>
<stop offset="0.13" stop-opacity="0.69"/>
<stop offset="1" stop-opacity="0"/>
</linearGradient>
<linearGradient id="paint21_linear" x1="890.633" y1="171.031" x2="890.817" y2="221.441" gradientUnits="userSpaceOnUse">
<stop offset="0.01"/>
<stop offset="0.13" stop-opacity="0.69"/>
<stop offset="1" stop-opacity="0"/>
</linearGradient>
<linearGradient id="paint22_linear" x1="4537.75" y1="8210.29" x2="5388.85" y2="3108.9" gradientUnits="userSpaceOnUse">
<stop offset="0.01"/>
<stop offset="0.13" stop-opacity="0.69"/>
<stop offset="1" stop-opacity="0"/>
</linearGradient>
<linearGradient id="paint23_linear" x1="1810.79" y1="465.97" x2="1814.43" y2="594.18" gradientUnits="userSpaceOnUse">
<stop offset="0.01"/>
<stop offset="0.13" stop-opacity="0.69"/>
<stop offset="1" stop-opacity="0"/>
</linearGradient>
<linearGradient id="paint24_linear" x1="4182.05" y1="1143.26" x2="4221.49" y2="306.813" gradientUnits="userSpaceOnUse">
<stop offset="0.01"/>
<stop offset="0.13" stop-opacity="0.69"/>
<stop offset="1" stop-opacity="0"/>
</linearGradient>
<linearGradient id="paint25_linear" x1="9339.17" y1="3005.12" x2="9372.46" y2="4860.5" gradientUnits="userSpaceOnUse">
<stop offset="0.01"/>
<stop offset="0.13" stop-opacity="0.69"/>
<stop offset="1" stop-opacity="0"/>
</linearGradient>
<linearGradient id="paint26_linear" x1="882.806" y1="368.712" x2="882.806" y2="347.159" gradientUnits="userSpaceOnUse">
<stop offset="0.01"/>
<stop offset="0.13" stop-opacity="0.69"/>
<stop offset="1" stop-opacity="0"/>
</linearGradient>
<linearGradient id="paint27_linear" x1="10317.7" y1="1579.13" x2="10317.4" y2="2005.33" gradientUnits="userSpaceOnUse">
<stop offset="0.01"/>
<stop offset="0.13" stop-opacity="0.69"/>
<stop offset="1" stop-opacity="0"/>
</linearGradient>
<linearGradient id="paint28_linear" x1="2.82282" y1="3954.79" x2="1392.31" y2="4304.71" gradientUnits="userSpaceOnUse">
<stop offset="0.01"/>
<stop offset="0.13" stop-opacity="0.69"/>
<stop offset="1" stop-opacity="0"/>
</linearGradient>
<clipPath id="clip0">
<rect width="121" height="74" fill="white"/>
</clipPath>
</defs>
</svg>
