<svg width="24" height="24" viewBox="0 0 24 24" fill="none" xmlns="http://www.w3.org/2000/svg">
<path d="M14.1193 6.11986L8.78134 11.7236C8.70498 11.8036 8.66675 11.8957 8.66675 11.9999C8.66675 12.1041 8.70498 12.1964 8.78134 12.2765L14.1193 17.8797C14.1958 17.96 14.2835 18 14.3829 18C14.4821 18 14.57 17.9599 14.6463 17.8797L15.2189 17.2786C15.2952 17.1985 15.3334 17.1063 15.3334 17.0021C15.3334 16.8979 15.2952 16.8056 15.2189 16.7255L10.7171 11.9999L15.2191 7.27418C15.2955 7.19407 15.3334 7.1018 15.3334 6.99777C15.3334 6.89341 15.2953 6.80117 15.2191 6.72107L14.6463 6.11991C14.57 6.0398 14.4821 6 14.3829 6C14.2835 5.99996 14.1957 6.03976 14.1193 6.11986Z" fill="white"/>
</svg>
