<svg width="48" height="48" viewBox="0 0 48 48" fill="none" xmlns="http://www.w3.org/2000/svg">
<path d="M38.1421 9.85781C34.3646 6.08039 29.3422 4 24 4C18.6577 4 13.6352 6.08039 9.85781 9.85781C6.08031 13.6353 4 18.6578 4 24C4 29.3422 6.08031 34.3646 9.85781 38.1421C13.6353 41.9196 18.6577 44 24 44C29.3422 44 34.3646 41.9196 38.1421 38.1421C41.9196 34.3646 44 29.3422 44 24C44 18.6578 41.9196 13.6354 38.1421 9.85781ZM24 41.6562C14.2643 41.6562 6.34375 33.7357 6.34375 24C6.34375 14.2643 14.2643 6.34375 24 6.34375C33.7357 6.34375 41.6562 14.2643 41.6562 24C41.6562 33.7357 33.7357 41.6562 24 41.6562Z" fill="#939DB0"/>
<path d="M33.555 17.5828C33.0974 17.1253 32.3554 17.1253 31.8978 17.5829L21.5495 27.9312L16.1021 22.4838C15.6445 22.0262 14.9025 22.0262 14.4448 22.4838C13.9871 22.9414 13.9871 23.6834 14.4448 24.1411L20.7208 30.4171C20.9496 30.6459 21.2496 30.7603 21.5494 30.7603C21.8493 30.7603 22.1493 30.6458 22.378 30.4171L33.555 19.2401C34.0127 18.7825 34.0127 18.0405 33.555 17.5828Z" fill="#939DB0"/>
</svg>
