<svg width="22" height="22" viewBox="0 0 22 22" fill="none" xmlns="http://www.w3.org/2000/svg">
<path d="M0.762791 9.76744H9.00465C9.43256 9.76744 9.76744 9.43256 9.76744 9.00465V0.762791C9.76744 0.334884 9.43256 0 9.00465 0H0.762791C0.334884 0 0 0.334884 0 0.762791V9.00465C0 9.41395 0.353488 9.76744 0.762791 9.76744ZM1.52558 1.52558H8.24186V8.24186H1.52558V1.52558Z" fill="#72A065"/>
<path d="M21.6186 0.762791C21.6186 0.334884 21.2837 0 20.8558 0H12.614C12.186 0 11.8512 0.334884 11.8512 0.762791V9.00465C11.8512 9.43256 12.186 9.76744 12.614 9.76744H20.8558C21.2837 9.76744 21.6186 9.43256 21.6186 9.00465V0.762791ZM20.093 8.24186H13.3767V1.52558H20.093V8.24186Z" fill="#72A065"/>
<path d="M0.762791 21.6185H9.00465C9.43256 21.6185 9.76744 21.2836 9.76744 20.8557V12.6139C9.76744 12.186 9.43256 11.8511 9.00465 11.8511H0.762791C0.334884 11.8511 0 12.186 0 12.6139V20.8557C0 21.265 0.353488 21.6185 0.762791 21.6185ZM1.52558 13.3767H8.24186V20.0929H1.52558V13.3767Z" fill="#72A065"/>
<path d="M20.8558 11.8511H12.614C12.186 11.8511 11.8512 12.186 11.8512 12.6139V20.8557C11.8512 21.2836 12.186 21.6185 12.614 21.6185H20.8558C21.2837 21.6185 21.6186 21.2836 21.6186 20.8557V12.6139C21.6186 12.2046 21.2651 11.8511 20.8558 11.8511ZM20.093 20.0929H13.3767V13.3767H20.093V20.0929Z" fill="#72A065"/>
</svg>
