<svg width="24" height="24" viewBox="0 0 24 24" fill="none" xmlns="http://www.w3.org/2000/svg">
<g clip-path="url(#clip0)">
<path d="M8.00963 12.8066L7.99387 23.9882L11.9963 21.3743L15.9919 23.9995L16.0076 12.8186L8.00963 12.8066Z" fill="#ED6362"/>
<path d="M13.567 22.0288C13.549 21.6806 13.2368 21.4187 12.8878 21.4179L12.5456 21.4172C12.1981 21.4067 11.9189 21.1222 11.9189 20.7725C11.9197 20.4168 12.2094 20.1271 12.5659 20.1278L13.531 20.1293C13.8289 20.1301 14.0736 19.8862 14.0699 19.5882V19.5424C14.0909 19.2482 13.8552 18.9998 13.5618 18.9991L10.6739 18.9946C10.3219 18.9938 10.0119 18.7326 9.99168 18.3852C9.97592 18.0129 10.2701 17.7067 10.6386 17.7075L13.3164 17.7112C13.6143 17.712 13.859 17.4681 13.8597 17.1694L13.856 17.1318V17.1236C13.8605 16.8091 13.6046 16.5517 13.2893 16.5517L11.7869 16.5495C11.4349 16.5487 11.1249 16.2875 11.1047 15.9356C11.0889 15.5671 11.3831 15.2571 11.7516 15.2579L13.4109 15.2601C13.7216 15.2609 13.9535 15.0004 13.9498 14.6897C13.9498 14.6852 13.9498 14.6852 13.9498 14.6815C13.9498 14.677 13.9498 14.677 13.9498 14.6732C13.9543 14.3625 13.7231 14.1014 13.4124 14.1014L11.6225 14.0991C11.275 14.0984 10.9651 13.8372 10.9448 13.4897C10.929 13.1167 11.2232 12.8113 11.5917 12.812L16.0076 12.8188L15.9911 24.0004L13.4867 22.3545C13.5378 22.2555 13.573 22.1489 13.567 22.0288Z" fill="#E95454"/>
<path d="M20.7552 8.7545C20.7552 9.50799 19.9942 10.1519 19.8081 10.8469C19.616 11.5658 19.9477 12.5032 19.583 13.1329C19.2137 13.7715 18.2328 13.9509 17.7142 14.4687C17.1956 14.9873 17.017 15.9675 16.3784 16.3375C15.7487 16.7015 14.8121 16.3697 14.0924 16.5626C13.3974 16.7487 12.7535 17.5097 12 17.5097C11.2465 17.5097 10.6026 16.7487 9.90762 16.5626C9.18864 16.3705 8.25128 16.7022 7.62162 16.3375C6.98295 15.9682 6.80358 14.9873 6.28574 14.4687C5.76715 13.9502 4.78701 13.7715 4.41702 13.1329C4.05303 12.5032 4.38475 11.5666 4.19187 10.8469C4.00575 10.1519 3.24475 9.50799 3.24475 8.7545C3.24475 8.001 4.00575 7.35708 4.19187 6.66212C4.384 5.94315 4.05228 5.00578 4.41702 4.37612C4.78626 3.73745 5.76715 3.55809 6.28574 3.04025C6.80433 2.52165 6.98295 1.54151 7.62162 1.17152C8.25128 0.80753 9.18789 1.13925 9.90762 0.946371C10.6033 0.760999 11.2472 0 12.0007 0C12.7542 0 13.3982 0.760999 14.0931 0.947122C14.8121 1.13925 15.7494 0.80753 16.3791 1.17227C17.0178 1.54151 17.1971 2.52241 17.715 3.041C18.2336 3.55959 19.2137 3.7382 19.5837 4.37687C19.9477 5.00654 19.616 5.94315 19.8089 6.66287C19.9942 7.35708 20.7552 8.001 20.7552 8.7545Z" fill="#FDBC4B"/>
<path d="M12.0008 15.0067C8.55299 15.0067 5.7484 12.2013 5.7484 8.75431C5.7484 5.30729 8.55299 2.50195 12.0008 2.50195C15.4485 2.50195 18.2531 5.30729 18.2531 8.75431C18.2531 12.2013 15.4485 15.0067 12.0008 15.0067Z" fill="#FFDB70"/>
<path opacity="0.6" d="M18.2531 8.75436C18.2531 5.42818 15.6399 2.70764 12.3595 2.52002H11.7771C11.3928 2.52002 11.0499 2.80821 11.0266 3.19246C11.0086 3.60373 11.3328 3.94295 11.7403 3.94295L15.1806 3.9437C15.5866 3.9437 15.9131 4.28293 15.8913 4.6942C15.871 5.0792 15.5258 5.36814 15.1401 5.36814H13.8064C13.4229 5.3794 13.113 5.6931 13.113 6.07961C13.113 6.47286 13.4334 6.79332 13.8267 6.79332H15.8485C16.178 6.79332 16.4474 7.0635 16.4429 7.39222V7.4425C16.4654 7.76746 16.205 8.04139 15.88 8.04139H11.4154C11.0266 8.04139 10.6836 8.32958 10.6604 8.71383C10.6424 9.1251 10.9666 9.46433 11.3741 9.46433H15.6069C15.9363 9.46433 16.2058 9.7345 16.2058 10.0632L16.2013 10.1045V10.1135C16.2058 10.461 15.9221 10.7447 15.5746 10.7447H12.6402C12.2514 10.7447 11.9084 11.0329 11.8852 11.4216C11.8672 11.8284 12.1914 12.1721 12.5989 12.1721H15.7067C16.0497 12.1721 16.3056 12.4603 16.3011 12.8033C16.3011 12.8078 16.3011 12.8078 16.3011 12.8123C16.3011 12.8168 16.3011 12.8168 16.3011 12.8213C16.3056 13.1643 16.0497 13.4524 15.7067 13.4524H12.4548C12.0705 13.4524 11.7276 13.7406 11.7043 14.1249C11.6863 14.5369 12.0105 14.8754 12.418 14.8754H13.2758C16.1149 14.2832 18.2531 11.7638 18.2531 8.75436Z" fill="#FCEF92"/>
<path d="M16.121 7.44732H13.2503L12.3632 4.71704C12.2492 4.36581 11.7523 4.36581 11.6383 4.71704L10.7512 7.44732H7.88055C7.5113 7.44732 7.3582 7.91938 7.6569 8.13627L9.97967 9.82413L9.09259 12.5544C8.97852 12.9056 9.38003 13.1976 9.67873 12.9807L12.0008 11.2936L14.3235 12.9814C14.6222 13.1983 15.0237 12.9064 14.9097 12.5552L14.0226 9.82488L16.3454 8.13702C16.644 7.92013 16.4902 7.44732 16.121 7.44732Z" fill="#EC9922"/>
<path d="M11.0551 9.80754C11.6367 9.80754 12.1081 9.33612 12.1081 8.7546C12.1081 8.17308 11.6367 7.70166 11.0551 7.70166C10.4736 7.70166 10.0022 8.17308 10.0022 8.7546C10.0022 9.33612 10.4736 9.80754 11.0551 9.80754Z" fill="#F49D35"/>
</g>
<defs>
<clipPath id="clip0">
<rect width="24" height="24" fill="white"/>
</clipPath>
</defs>
</svg>
