<svg width="24" height="23" viewBox="0 0 24 23" fill="none" xmlns="http://www.w3.org/2000/svg">
<path d="M11.9606 12.8276C15.5074 12.8276 18.3843 9.95074 18.3843 6.40396C18.3843 2.85719 15.5074 0 11.9606 0C8.41385 0 5.53699 2.87686 5.53699 6.40396C5.53699 9.93106 8.41381 12.8276 11.9606 12.8276ZM11.9606 1.67488C14.5616 1.67488 16.6897 3.80295 16.6897 6.40396C16.6897 9.00497 14.5616 11.133 11.9606 11.133C9.35966 11.133 7.23155 9.00493 7.23155 6.40392C7.23155 3.80291 9.35962 1.67488 11.9606 1.67488Z" fill="#525252"/>
<path d="M0.847282 22.8575H23.1527C23.6256 22.8575 24 22.4831 24 22.0102C24 17.5768 20.3941 13.9512 15.9409 13.9512H8.05912C3.62562 13.9512 0 17.557 0 22.0102C0 22.4831 0.374378 22.8575 0.847282 22.8575ZM8.05912 15.6457H15.9409C19.1724 15.6457 21.8325 18.0497 22.2463 21.1629H1.75369C2.16747 18.0694 4.8276 15.6457 8.05912 15.6457Z" fill="#525252"/>
</svg>
