<svg width="108" height="98" viewBox="0 0 108 98" fill="none" xmlns="http://www.w3.org/2000/svg">
<path opacity="0.07" d="M103.917 72.6787C103.763 72.9734 103.605 73.2661 103.444 73.5567C101.975 76.2175 100.2 78.8415 97.6407 80.5689C94.1614 82.9186 79.4315 96.3105 75.2047 96.5602C55.5488 97.7473 51.3828 98.5374 31.7059 97.559C26.8765 97.3195 11.3004 86.7869 5.17748 81.1297C4.5148 80.5316 3.89464 79.8901 3.32129 79.2099C-0.605274 74.3898 8.55601 66.2335 10.9203 62.1359C17.6228 50.5267 11.0694 35.2763 16.2768 22.959C19.9052 14.3626 28.571 8.89576 37.0876 4.71424C43.4478 1.59295 50.6206 -1.17426 57.5352 0.510215C66.2996 2.66135 71.759 11.2679 74.6105 19.631C76.0194 23.7245 77.0441 27.994 79.1565 31.8214C81.2688 35.6489 84.662 39.0424 89.0254 39.9163C90.8606 40.2909 92.7608 40.1865 94.617 40.4567C101.406 41.48 106.506 47.696 107.68 54.2907C108.788 60.5619 106.894 67.001 103.917 72.6787Z" fill="#FFBA5F"/>
<path d="M48.334 61.6922C49.0374 61.3176 49.7639 60.9021 50.2112 60.2595C50.7025 59.5308 50.8306 58.532 51.5781 58.0326C51.9221 57.8432 52.2984 57.7163 52.6889 57.658L59.3473 56.4095C60.9914 56.0984 62.7069 55.7955 64.3636 56.0984C66.0203 56.4013 67.4587 57.3469 68.8445 58.2414C71.5994 60.0098 74.3522 61.7986 77.105 63.5629C77.6383 63.917 78.2158 64.269 78.5559 64.8114C78.8114 65.2288 78.9918 65.6857 79.0893 66.1623C79.5134 67.7302 79.8416 69.3213 80.0719 70.9271C80.1675 71.3802 80.1675 71.8475 80.0719 72.3005C79.9649 72.759 79.6667 73.1335 79.3895 73.5081C77.4031 76.1914 75.4189 78.8542 73.4136 81.5375C72.9642 82.1618 72.4309 82.8065 71.6624 82.9518C71.2424 83.0357 70.7868 82.9313 70.3605 82.8495C65.2161 81.8506 59.7945 82.4954 54.7593 81.1015C52.8695 80.5817 51.1078 79.7896 49.3377 78.9995C47.5676 78.2095 45.7513 77.3969 43.9581 76.5864C41.0184 75.2765 34.8661 72.9452 37.896 68.9725C40.4158 65.7018 44.7686 63.6059 48.334 61.6922Z" fill="#FFBA5F"/>
<path d="M48.334 61.6922C49.0374 61.3176 49.7639 60.9021 50.2112 60.2595C50.7025 59.5308 50.8306 58.532 51.5781 58.0326C51.9221 57.8432 52.2984 57.7163 52.6889 57.658L59.3473 56.4095C60.9914 56.0984 62.7069 55.7955 64.3636 56.0984C66.0203 56.4013 67.4587 57.3469 68.8445 58.2414C71.5994 60.0098 74.3522 61.7986 77.105 63.5629C77.6383 63.917 78.2158 64.269 78.5559 64.8114C78.8114 65.2288 78.9918 65.6857 79.0893 66.1623C79.5134 67.7302 79.8416 69.3213 80.0719 70.9271C80.1675 71.3802 80.1675 71.8475 80.0719 72.3005C79.9649 72.759 79.6667 73.1335 79.3895 73.5081C77.4031 76.1914 75.4189 78.8542 73.4136 81.5375C72.9642 82.1618 72.4309 82.8065 71.6624 82.9518C71.2424 83.0357 70.7868 82.9313 70.3605 82.8495C65.2161 81.8506 59.7945 82.4954 54.7593 81.1015C52.8695 80.5817 51.1078 79.7896 49.3377 78.9995C47.5676 78.2095 45.7513 77.3969 43.9581 76.5864C41.0184 75.2765 34.8661 72.9452 37.896 68.9725C40.4158 65.7018 44.7686 63.6059 48.334 61.6922Z" fill="url(#paint0_linear)"/>
<path d="M41.8016 74.3615L50.4548 72.6054L50.6962 63.5833L57.468 57.0337L58.5074 69.4431L67.7694 82.0941C67.7694 82.0941 53.4658 81.04 50.5828 78.6965C47.6999 76.353 41.8016 74.3615 41.8016 74.3615Z" fill="url(#paint1_linear)"/>
<path d="M55.868 40.9704C56.0611 41.6561 55.9331 42.3847 55.7609 43.0724C54.9924 46.2756 53.4784 49.2495 52.6112 52.4138C52.4621 52.9542 52.3341 53.515 51.9918 53.953C51.6495 54.391 51.0322 54.7021 50.4989 54.5138C50.2814 54.417 50.0938 54.2663 49.9548 54.0766C49.8159 53.8869 49.7305 53.665 49.7073 53.4331C49.6696 52.9659 49.7057 52.4958 49.8143 52.0393C50.1986 49.7285 50.0915 47.3317 50.6039 45.0476C50.9251 43.6148 51.5445 42.1821 52.5461 41.0543C53.491 40.0125 55.2695 38.9114 55.868 40.9704Z" fill="url(#paint2_linear)"/>
<path d="M39.9664 60.6722C39.5822 62.8766 40.2016 65.2283 39.5612 67.3712C39.494 67.5293 39.4793 67.704 39.5192 67.8706C39.5973 68.0096 39.7274 68.1137 39.8825 68.1613C40.3508 68.3785 40.8577 68.5057 41.3754 68.5358C41.5535 68.5643 41.7362 68.5271 41.8877 68.4315C42.0103 68.3101 42.0985 68.1599 42.1439 67.9955C43.6599 63.2743 45.1753 58.5518 46.6899 53.8279C47.0532 52.6837 47.4164 51.5171 47.4584 50.332C47.4584 50.3525 43.9791 50.7414 43.5948 50.9768C42.8053 51.4557 42.8263 52.3501 42.6772 53.1402C42.209 55.8255 40.4368 58.0299 39.9664 60.6722Z" fill="url(#paint3_linear)"/>
<path d="M45.0689 17.3978C45.1158 17.3213 45.1815 17.2573 45.26 17.2116C45.3694 17.1716 45.4886 17.1645 45.6022 17.1911C46.0495 17.273 46.3917 17.627 46.6899 17.9607C47.02 18.2952 47.264 18.7014 47.4017 19.1457C47.4017 19.1867 47.4227 19.2297 47.4017 19.2501C47.3722 19.2758 47.3342 19.2903 47.2946 19.2911C46.6647 19.3545 45.1949 19.4794 44.6468 19.1048C44.0988 18.7302 44.7917 17.7724 45.0689 17.3978Z" fill="url(#paint4_linear)"/>
<path d="M49.8269 18.4807C49.6988 18.8348 49.5288 19.2094 49.2096 19.4161C48.8043 19.6863 48.2479 19.6208 47.7797 19.4591C47.2775 19.2683 46.8358 18.9521 46.4988 18.5421C46.3373 18.3245 46.159 18.1193 45.9655 17.9281C45.8201 17.8315 45.6799 17.7276 45.5455 17.617C45.3755 17.4643 45.2519 17.269 45.1882 17.0523C45.1245 16.8357 45.1232 16.6062 45.1844 16.3889C45.2472 16.1885 45.3841 16.0178 45.5686 15.91C45.662 15.8658 45.7669 15.8501 45.8696 15.8651C45.9723 15.8801 46.0679 15.925 46.1439 15.9939C46.1442 15.4433 46.2306 14.896 46.4001 14.3708C46.4898 14.0199 46.6825 13.702 46.9545 13.4559C47.2302 13.285 47.5459 13.185 47.8721 13.1653C48.8337 13.0179 50.5409 12.8317 50.5829 14.1211C50.6251 15.6085 50.3683 17.0895 49.8269 18.4807Z" fill="url(#paint5_linear)"/>
<path d="M45.176 18.1267C43.8951 17.4411 43.4038 15.7136 43.9581 14.4017C44.5125 13.0897 45.9004 12.1973 47.3513 12.011C47.7276 11.9506 48.1125 11.9645 48.4831 12.052C48.4411 12.1134 48.5482 12.1134 48.6322 12.1134C49.3167 12.2382 50.0411 12.1564 50.732 12.3426C51.4228 12.5289 52.0569 13.1122 51.9708 13.7999C51.8644 13.7673 51.7521 13.7567 51.6412 13.7688C51.5303 13.7808 51.4233 13.8153 51.3268 13.87C51.2304 13.9247 51.1467 13.9984 51.0812 14.0865C51.0156 14.1745 50.9696 14.2749 50.9461 14.3812C50.9375 14.4809 50.9163 14.5792 50.8831 14.6739C50.8555 14.7201 50.8186 14.7605 50.7746 14.7925C50.7306 14.8245 50.6803 14.8475 50.627 14.8601C50.2321 15.0222 49.7884 15.0296 49.3881 14.8806C49.0248 14.7353 48.6406 14.4712 48.2773 14.6104C47.9141 14.7496 47.744 15.2981 47.3387 15.3391C47.1288 15.3595 46.8705 15.2551 46.6983 15.4005C46.5912 15.4844 46.5912 15.6502 46.5702 15.775C46.5492 15.8999 46.4631 16.0677 46.3141 16.0472C46.2301 16.0472 46.144 15.9633 46.0789 15.8999C45.9512 15.8273 45.7995 15.8064 45.6563 15.8416C45.513 15.8768 45.3896 15.9653 45.3125 16.0882C45.2337 16.2087 45.1848 16.3454 45.1699 16.4876C45.1549 16.6297 45.1743 16.7733 45.2264 16.9069C45.3245 17.1766 45.4534 17.4348 45.6106 17.6765C45.6573 17.76 45.6859 17.8519 45.6946 17.9466C45.6442 18.2168 45.4091 18.1063 45.176 18.1267Z" fill="#3F3D56"/>
<path d="M42.6562 19.2503C42.7252 19.0302 42.8588 18.8346 43.0404 18.6875C43.242 18.6024 43.462 18.5672 43.6809 18.5851C44.1281 18.6056 44.5565 18.667 45.0037 18.7304C45.2296 18.7627 45.4513 18.8182 45.6651 18.8962C46.0337 19.059 46.3783 19.2689 46.6898 19.5205C46.0106 19.5461 45.3337 19.6144 44.6635 19.7252C44.0861 19.8275 43.5318 20.0363 42.9543 20.1202C42.2089 20.2491 42.4651 19.7292 42.6562 19.2503Z" fill="#FFBA5F"/>
<path d="M38.3014 25.3047C38.1032 25.9882 37.9468 26.6826 37.8331 27.3842C37.4489 29.4453 37.0646 31.4777 36.6804 33.5429C36.5523 34.1876 36.4872 34.9367 36.9995 35.3522C37.2788 35.5814 37.6631 35.6449 38.0242 35.7267C38.1451 35.7528 38.2563 35.8108 38.3455 35.8946C38.4051 35.9964 38.4416 36.1094 38.4526 36.2262C38.5576 37.1001 38.6437 37.9741 38.7507 38.848C38.7525 38.967 38.7897 39.0829 38.8578 39.1817C38.9176 39.2353 38.9884 39.276 39.0655 39.301C39.1426 39.3261 39.2242 39.3349 39.3051 39.327C42.4298 39.4739 45.5554 39.0575 48.5252 38.0989C48.632 38.0695 48.7286 38.0122 48.8044 37.9331C48.8472 37.864 48.869 37.7846 48.8674 37.7039C48.9325 37.1636 49.0165 36.6437 49.0774 36.1013C49.1662 35.6751 49.159 35.2351 49.0564 34.8118C48.9283 34.3759 48.586 34.0218 48.4265 33.6063C48.3306 33.3623 48.2867 33.1017 48.2976 32.8406C48.3084 32.5795 48.3737 32.3233 48.4895 32.0876C49.1719 32.0037 49.5771 33.023 50.2827 33.0025C50.6459 32.982 50.9021 32.7098 51.1373 32.4397C51.8197 31.621 52.5231 30.8166 53.2076 29.9836C53.3089 29.886 53.3815 29.7637 53.4176 29.6295C53.4502 29.4674 53.4281 29.2994 53.3546 29.1505C53.2321 28.8704 53.045 28.6215 52.808 28.4231C52.571 28.2247 52.2903 28.0821 51.9877 28.0064C51.6454 27.9245 51.2401 27.9245 50.963 27.7158C50.7303 27.5148 50.5729 27.244 50.5157 26.9462C49.9593 25.3088 49.405 23.6386 49.0858 21.9316C49.0338 21.446 48.8915 20.9737 48.6658 20.5378C48.3047 19.934 47.5992 19.6024 46.8957 19.4776C46.1829 19.3978 45.4614 19.4331 44.7603 19.582C44.0128 19.7068 42.9461 19.7273 42.3056 20.1018C40.4343 21.3698 39.0346 23.1944 38.3161 25.3026L38.3014 25.3047Z" fill="#FFBA5F"/>
<path d="M49.1236 21.9541C49.6569 22.3287 55.1205 22.0994 55.1205 22.0994L52.0212 28.0084C52.0212 28.0084 51.2779 28.0534 50.9546 27.7178C50.6312 27.3821 50.3162 26.9236 49.1236 21.9541Z" fill="#FFBA5F"/>
<path d="M53.1782 38.5145C53.8837 38.5575 54.6081 38.5575 55.2275 38.8891C55.3945 38.9727 55.5385 39.0941 55.6475 39.2431C55.9037 39.6811 55.6265 40.2215 55.3493 40.637C54.6879 41.6358 54.0265 42.6551 53.365 43.6539C53.3214 43.721 53.2715 43.784 53.216 43.8422C53.0537 43.9301 52.8647 43.9591 52.6826 43.9241C50.861 43.7164 49.022 43.6958 47.1959 43.8627C46.6416 43.134 46.0873 42.3849 45.766 41.5314C45.4447 40.6779 45.3817 39.6893 45.8311 38.8706C46.1188 38.3859 46.5639 38.0083 47.0962 37.7974C47.6285 37.5865 48.2177 37.5544 48.7708 37.706C50.2112 38.1195 51.6012 38.4531 53.1782 38.5145Z" fill="#3F3D56"/>
<path d="M39.1769 67.0171C39.1196 67.2157 39.0495 67.4105 38.967 67.6004C38.8911 67.8289 38.848 68.0665 38.8389 68.3065C38.7948 68.6402 38.7528 68.9738 38.7108 69.3299C38.6835 69.4475 38.6907 69.5703 38.7318 69.684C38.7948 69.8089 38.9229 69.8518 39.0509 69.9132C39.6494 70.1179 40.3318 70.1015 40.9722 70.1015C41.2704 70.1015 41.6022 70.0586 41.7827 69.8293C41.848 69.7358 41.8916 69.6297 41.9108 69.5182C42.0599 68.9779 42.188 68.458 42.2951 67.9156C42.2951 67.8747 42.3161 67.8112 42.2741 67.7908C42.2447 67.7648 42.2066 67.7502 42.167 67.7498C41.6337 67.7089 41.2494 67.4367 40.7812 67.2914C40.2611 67.1314 39.7217 67.0392 39.1769 67.0171Z" fill="#FFBA5F"/>
<path d="M37.1275 71.5119C36.9748 71.7866 36.8947 72.094 36.8945 72.4064C36.9575 72.9467 37.4908 73.2803 37.9821 73.5505C39.8897 74.5781 41.9412 75.3284 44.0715 75.7774C44.3042 75.8096 44.5329 75.8652 44.7539 75.9432C44.9947 76.0649 45.2446 76.1689 45.5014 76.2543C45.7576 76.3177 46.0998 76.2543 46.2048 76.0046C46.2438 75.8948 46.2565 75.7778 46.242 75.6625C46.2274 75.5472 46.186 75.4367 46.1208 75.3394C45.7951 74.639 45.3787 73.9821 44.882 73.3847C44.5194 72.9979 44.1841 72.5876 43.8783 72.1567C43.6242 71.7473 43.4583 71.2827 43.1959 70.8877C42.9849 70.5549 42.6973 70.2746 42.356 70.069C41.9715 69.815 41.5185 69.6776 41.0541 69.674C40.5628 69.633 40.0714 69.5696 39.5591 69.5286C39.2189 69.4877 38.6835 69.324 38.3433 69.3629C37.959 69.4243 37.873 69.9032 37.7134 70.1938C37.5538 70.4845 37.1275 71.1374 37.1275 71.5119Z" fill="#3F3D56"/>
<path d="M52.7939 51.4357C52.8602 51.4289 52.9272 51.4366 52.99 51.4582C53.0528 51.4798 53.1099 51.5148 53.1572 51.5605C53.1894 51.618 53.2062 51.6824 53.2062 51.7478C53.2062 51.8133 53.1894 51.8776 53.1572 51.9351C52.922 52.6842 52.6875 53.4347 52.4538 54.1865C52.4245 54.2921 52.3738 54.391 52.3047 54.4772C52.1871 54.5789 52.0407 54.6438 51.8847 54.6634C51.2165 54.7813 50.5357 54.8163 49.8585 54.7678C49.6637 54.762 49.4716 54.7218 49.2915 54.6491C48.9073 54.4444 48.8233 53.943 48.8443 53.5254C48.8653 52.9646 49.1004 51.6526 49.7199 51.4664C50.1041 51.3415 50.7866 51.4664 51.2128 51.4869C51.7273 51.4357 52.2606 51.4357 52.7939 51.4357Z" fill="#FFBA5F"/>
<path d="M53.6485 54.5976C53.2433 54.3275 52.8086 54.0982 52.3887 53.869C52.27 53.7997 52.14 53.7505 52.0044 53.7237C51.7821 53.7221 51.5627 53.7719 51.364 53.869C50.6815 54.0982 49.913 54.0573 49.1886 54.0143C49.0672 54.0007 48.9443 54.0076 48.8254 54.0348C48.7183 54.0778 48.5902 54.1596 48.5692 54.264C48.5041 54.307 48.4831 54.1821 48.5482 54.2231C48.6133 54.264 48.6112 54.3479 48.5902 54.4093C48.3208 55.3516 48.2841 56.3426 48.4831 57.3014C48.5041 57.3648 48.5041 57.4467 48.5482 57.4897C48.6212 57.5637 48.7202 57.6083 48.8254 57.6145C51.2744 58.0933 53.8006 58.0507 56.2312 57.4897C56.6689 57.4122 57.0881 57.2568 57.468 57.0312C57.7893 56.8265 58.0664 56.4704 57.9383 56.1163C57.8624 55.9534 57.7445 55.8124 57.5961 55.707C56.4826 54.8427 55.0631 54.4438 53.6485 54.5976Z" fill="#3F3D56"/>
<path d="M103.917 72.6783C103.763 72.973 103.605 73.2657 103.444 73.5563C101.975 76.2171 100.2 78.841 97.6407 80.5685C94.1614 82.9182 79.4315 96.3101 75.2047 96.5598C55.5488 97.7469 51.3828 98.5369 31.7059 97.5586C26.8765 97.3191 11.3004 86.7865 5.17747 81.1293L82.9528 72.1973C87.8626 73.6317 92.4833 75.8768 96.6139 78.8349C97.5084 75.6256 100.574 73.8306 103.917 72.6783Z" fill="#FFBA5F"/>
<path d="M103.917 72.6783C103.763 72.973 103.605 73.2657 103.444 73.5563C101.975 76.2171 100.2 78.841 97.6407 80.5685C94.1614 82.9182 79.4315 96.3101 75.2047 96.5598C55.5488 97.7469 51.3828 98.5369 31.7059 97.5586C26.8765 97.3191 11.3004 86.7865 5.17747 81.1293L82.9528 72.1973C87.8626 73.6317 92.4833 75.8768 96.6139 78.8349C97.5084 75.6256 100.574 73.8306 103.917 72.6783Z" fill="url(#paint6_linear)"/>
<path d="M77.2331 74.6825C75.736 76.3301 73.5396 77.2491 71.316 77.6298C69.0923 78.0105 66.8162 77.9061 64.561 77.7956C69.2645 79.4064 74.073 81.0336 79.0494 81.0868C80.7922 81.1073 82.5308 80.9312 84.2716 80.8166C87.4598 80.6041 90.6589 80.5932 93.8486 80.7839C94.0691 81.6189 93.395 82.4213 92.6979 82.9473C88.7902 85.911 83.249 85.4505 78.6295 87.182C77.4032 87.6425 76.198 88.2688 74.8856 88.3118C73.0672 88.3753 71.4399 87.3253 69.8462 86.4697C65.1448 83.9174 59.8009 82.7549 54.5179 81.7622C49.1635 80.7614 43.4836 79.7728 39.3995 76.2626C40.0862 75.6138 41.0647 75.3702 41.997 75.1614C51.2926 73.0738 60.9138 71.8457 70.4488 72.7893C72.7711 73.0144 75.0557 73.8495 77.2331 74.6825Z" fill="url(#paint7_linear)"/>
<path d="M43.5108 23.9923C43.1291 26.8272 42.9508 29.6846 42.9775 32.5436C42.9775 33.3767 42.9985 34.2301 42.7213 35.0202C42.4879 35.6237 42.1403 36.1791 41.6966 36.6576C38.9207 39.695 34.1627 39.9447 30.0219 39.523C29.6167 39.5152 29.2201 39.4075 28.8691 39.2099C28.4492 38.9397 28.2287 38.4608 28.0565 38.0044C27.0969 35.4439 26.9479 32.6562 27.0549 29.9095C27.1389 27.7256 27.3951 25.5212 28.2497 23.4806C29.1043 21.44 30.5763 19.6122 32.6256 18.6748C33.8908 18.1219 35.2914 17.932 36.6634 18.1274C38.0353 18.3228 39.3217 18.8954 40.3717 19.778C40.6278 20.0073 40.9071 20.257 41.2473 20.257C41.5475 20.257 41.8247 20.0687 42.0872 19.9233C42.9607 19.4035 44.9261 18.593 45.01 19.8824C45.031 20.3409 44.2625 21.1923 44.0925 21.6303C43.7932 22.3894 43.5976 23.1835 43.5108 23.9923Z" fill="#FFBA5F"/>
<path d="M43.5108 23.9923C43.1291 26.8272 42.9508 29.6846 42.9775 32.5436C42.9775 33.3767 42.9985 34.2301 42.7213 35.0202C42.4879 35.6237 42.1403 36.1791 41.6966 36.6576C38.9207 39.695 34.1627 39.9447 30.0219 39.523C29.6167 39.5152 29.2201 39.4075 28.8691 39.2099C28.4492 38.9397 28.2287 38.4608 28.0565 38.0044C27.0969 35.4439 26.9479 32.6562 27.0549 29.9095C27.1389 27.7256 27.3951 25.5212 28.2497 23.4806C29.1043 21.44 30.5763 19.6122 32.6256 18.6748C33.8908 18.1219 35.2914 17.932 36.6634 18.1274C38.0353 18.3228 39.3217 18.8954 40.3717 19.778C40.6278 20.0073 40.9071 20.257 41.2473 20.257C41.5475 20.257 41.8247 20.0687 42.0872 19.9233C42.9607 19.4035 44.9261 18.593 45.01 19.8824C45.031 20.3409 44.2625 21.1923 44.0925 21.6303C43.7932 22.3894 43.5976 23.1835 43.5108 23.9923Z" fill="url(#paint8_linear)"/>
<path d="M38.8746 35.1087C38.8263 36.4841 38.2447 37.9434 37.0205 38.623C36.4158 38.9586 35.7165 39.0753 35.0299 39.1879C34.0021 39.3851 32.959 39.4974 31.9118 39.5235C31.2489 39.5507 30.5893 39.4193 29.9905 39.1408C29.1632 38.711 28.6424 37.8841 28.2036 37.0777C27.9073 36.5684 27.6734 36.0271 27.5065 35.4648C27.3439 34.7255 27.2825 33.9684 27.3238 33.2134C27.3427 31.5207 27.391 29.8199 27.7143 28.1559C27.8255 27.5876 27.972 27.0264 28.1532 26.4755C29.2526 26.4837 30.3515 26.4256 31.4435 26.3015C32.6551 26.1582 33.9296 25.8922 34.8157 25.0735C36.0126 23.9703 36.1806 22.1671 37.1255 20.8551C37.4282 20.4499 37.7856 20.0864 38.188 19.7744C38.6793 20.0691 38.3266 20.3884 38.1481 20.98C37.7428 22.3083 37.7848 23.7226 37.8247 25.0939C37.8814 27.0772 37.9402 29.0667 38.2888 31.0295C38.5407 32.3824 38.9229 33.7333 38.8746 35.1087Z" fill="url(#paint9_linear)"/>
<path d="M29.1862 33.0535C29.3059 33.2971 29.4655 33.5407 29.4508 33.8088C29.4418 33.9046 29.4027 33.9953 29.3388 34.0686C29.2749 34.1418 29.1894 34.1941 29.0938 34.2181C29.0539 34.1199 29.0161 34.0135 28.9742 33.9152C28.9056 33.7389 28.8278 33.566 28.7411 33.3974C28.6826 33.3757 28.6202 33.3659 28.5577 33.3687C28.4952 33.3716 28.434 33.3869 28.3778 33.4138C27.8991 32.6217 27.4812 31.7907 27.3972 30.884C27.3706 30.2719 27.4199 29.6589 27.5442 29.0583C27.6324 28.5302 27.729 27.9858 28.0272 27.5396C28.0434 27.5131 28.0617 27.4878 28.0818 27.4639H28.1006C28.5563 27.5294 29.014 27.5949 29.4676 27.6419C29.5768 28.4095 29.2723 29.3366 29.119 30.0428C28.9007 31.0457 28.7411 32.1346 29.1862 33.0535Z" fill="url(#paint10_linear)"/>
<path d="M30.3411 38.3689C30.3266 38.4235 30.3076 38.4769 30.2844 38.5285C30.2004 38.7102 30.0764 38.8716 29.9211 39.0013C29.5562 39.3023 29.0908 39.4625 28.613 39.4516C27.8865 39.4311 27.183 39.0975 26.5426 38.723C26.3008 38.5826 26.0718 38.4224 25.8581 38.244C25.2407 37.6627 25.0686 36.7888 24.9846 35.9558C24.9244 35.4538 24.9125 34.9474 24.9489 34.4432C24.846 34.3327 24.7389 34.2201 24.6423 34.1055L28.3484 32.8774C28.5099 33.029 28.6428 33.207 28.7411 33.4035C28.8278 33.5721 28.9056 33.7449 28.9741 33.9213C29.3584 34.8996 29.7216 35.8555 30.1059 36.8338C30.2119 37.0889 30.2948 37.3526 30.3537 37.6218C30.4119 37.8681 30.4076 38.1246 30.3411 38.3689Z" fill="#FFBA5F"/>
<path d="M30.3411 38.3689C30.3266 38.4235 30.3076 38.4769 30.2844 38.5285C30.2004 38.7102 30.0764 38.8716 29.9211 39.0013C29.5562 39.3023 29.0908 39.4625 28.613 39.4516C27.8865 39.4311 27.183 39.0975 26.5426 38.723C26.3008 38.5826 26.0718 38.4224 25.8581 38.244C25.2407 37.6627 25.0686 36.7888 24.9846 35.9558C24.9244 35.4538 24.9125 34.9474 24.9489 34.4432C24.846 34.3327 24.7389 34.2201 24.6423 34.1055L28.3484 32.8774C28.5099 33.029 28.6428 33.207 28.7411 33.4035C28.8278 33.5721 28.9056 33.7449 28.9741 33.9213C29.3584 34.8996 29.7216 35.8555 30.1059 36.8338C30.2119 37.0889 30.2948 37.3526 30.3537 37.6218C30.4119 37.8681 30.4076 38.1246 30.3411 38.3689Z" fill="url(#paint11_linear)"/>
<path d="M40.2626 19.4446C39.9854 19.854 38.8326 19.9645 38.3728 20.3616C37.7764 20.8814 37.3481 21.651 37.0499 22.4206C36.5376 23.7101 36.2604 25.1469 35.2987 26.1662C34.4462 27.1015 33.1654 27.5805 31.9055 27.7053C31.0884 27.7731 30.2663 27.7559 29.453 27.6542C28.9994 27.6071 28.5417 27.5416 28.086 27.4761H28.0839C27.7948 27.4637 27.517 27.3627 27.2902 27.1875C27.0802 26.9828 27.013 26.6246 27.2482 26.4588C27.3873 26.3708 27.554 26.3338 27.7186 26.3545C30.1522 26.3545 32.8609 26.2705 34.526 24.5656C35.5297 23.5422 35.9559 22.1095 36.7035 20.8814C37.1528 20.1323 37.8142 19.4037 38.6458 19.0394C39.093 18.8306 40.9282 18.4601 40.2626 19.4446Z" fill="url(#paint12_linear)"/>
<path d="M24.9842 34.1812C24.9842 34.2139 24.974 34.2487 24.9699 34.2835" stroke="black" stroke-width="1.03" stroke-miterlimit="10"/>
<path d="M30.3537 37.6176C30.3432 37.8837 30.3243 38.1498 30.2991 38.4118C30.2991 38.4506 30.2886 38.4875 30.2844 38.5284C30.2703 38.651 30.224 38.7681 30.15 38.8682C30.1231 38.9043 30.089 38.9347 30.0496 38.9576C30.0103 38.9805 29.9666 38.9953 29.9212 39.0012C29.8862 39.0067 29.8505 39.0051 29.8162 38.9967C29.7819 38.9882 29.7498 38.9731 29.7217 38.9521C29.6799 38.9082 29.6439 38.8594 29.6146 38.8068C29.1654 37.9845 28.7664 37.137 28.4198 36.2688C28.1637 35.6241 27.6093 34.6028 27.9516 33.9171C28.0322 33.71 28.1796 33.5341 28.3715 33.4156C28.4277 33.3887 28.4889 33.3734 28.5514 33.3706C28.6139 33.3678 28.6763 33.3775 28.7348 33.3993C28.8215 33.5679 28.8993 33.7407 28.9679 33.9171C29.0099 34.0194 29.0477 34.1218 29.0876 34.22C29.4277 35.094 29.7574 35.9536 30.0996 36.8296C30.2078 37.0846 30.2928 37.3482 30.3537 37.6176Z" fill="url(#paint13_linear)"/>
<path d="M33.4568 33.4814C33.4568 33.5142 33.4466 33.5469 33.4425 33.5817" stroke="black" stroke-width="1.03" stroke-miterlimit="10"/>
<path d="M36.821 32.1655C37.1077 32.4637 37.3229 32.8202 37.4509 33.2094C37.8352 34.1877 38.1985 35.1456 38.5827 36.1239C38.7738 36.6213 38.967 37.1637 38.8158 37.6631C38.6247 38.3488 37.8142 38.7643 37.0877 38.7438C36.3612 38.7233 35.6577 38.3897 35.0173 38.0172C34.7768 37.876 34.5486 37.7158 34.3349 37.5383C33.7155 36.9549 33.5454 36.081 33.4593 35.25C33.4 34.7479 33.3887 34.2415 33.4257 33.7374C33.3207 33.6269 33.2157 33.5143 33.117 33.3977" fill="url(#paint14_linear)"/>
<path d="M38.0892 38.0986C38.1171 38.1521 38.1532 38.2012 38.1963 38.244C38.2636 38.2859 38.3449 38.3008 38.4232 38.2856C38.5015 38.2703 38.5707 38.226 38.6163 38.1621C38.7101 38.0264 38.7619 37.8672 38.7654 37.7036C38.8725 36.8455 38.8513 35.9768 38.7024 35.1247C38.5743 34.4575 37.2934 31.4406 36.4178 33.2089C36.0756 33.8967 36.6278 34.9159 36.8882 35.5607C37.2394 36.4279 37.6404 37.2753 38.0892 38.0986Z" fill="#FFBA5F"/>
<path d="M38.0892 38.0986C38.1171 38.1521 38.1532 38.2012 38.1963 38.244C38.2636 38.2859 38.3449 38.3008 38.4232 38.2856C38.5015 38.2703 38.5707 38.226 38.6163 38.1621C38.7101 38.0264 38.7619 37.8672 38.7654 37.7036C38.8725 36.8455 38.8513 35.9768 38.7024 35.1247C38.5743 34.4575 37.2934 31.4406 36.4178 33.2089C36.0756 33.8967 36.6278 34.9159 36.8882 35.5607C37.2394 36.4279 37.6404 37.2753 38.0892 38.0986Z" fill="url(#paint15_linear)"/>
<path d="M32.0924 27.6768C31.9029 28.4055 31.7883 29.1507 31.7501 29.9016C31.622 32.1898 32.1701 34.4576 32.7307 36.6845C32.9407 37.5175 33.1381 38.3485 33.6063 39.0772C33.6909 39.1914 33.7291 39.3321 33.7134 39.4722C33.6504 39.597 33.4782 39.6175 33.3291 39.6175C32.9869 39.6175 32.6992 39.3473 32.3485 39.2634C32.3044 39.3473 32.2835 39.4108 32.2415 39.4927C30.8712 36.038 30.345 32.3198 30.7044 28.6326C30.7256 28.3731 30.7684 28.1157 30.8325 27.863" fill="url(#paint16_linear)"/>
<path d="M39.8824 24.6601C39.782 24.6457 39.6796 24.6527 39.5822 24.6806C39.4973 24.7325 39.4255 24.8025 39.3722 24.8852C39.0563 25.4229 38.8529 26.0163 38.7738 26.6311C38.6182 27.4839 38.5255 28.3464 38.4966 29.2121C38.471 29.4784 38.5002 29.747 38.5827 30.0021C38.8158 30.7103 39.6494 31.0255 40.3969 31.1667C41.1864 31.3346 42.104 31.355 42.7066 30.8126C43.3093 30.2703 43.3471 29.3799 43.3471 28.5878C43.3471 27.7139 43.7103 25.7797 42.9628 25.092C42.314 24.5353 40.6825 24.7215 39.8824 24.6601Z" fill="url(#paint17_linear)"/>
<path d="M42.7822 26.698C42.5051 26.9272 42.2069 27.1544 41.9297 27.3836C41.8698 27.4522 41.7861 27.4966 41.6946 27.5085C41.5925 27.5062 41.4945 27.4693 41.4174 27.4041C40.8904 27.0694 40.4031 26.6789 39.9643 26.2395C39.7943 26.0737 39.6242 25.8445 39.6662 25.6255C39.5801 26.9375 39.431 28.2474 39.4562 29.5798C39.4345 29.8155 39.4788 30.0524 39.5843 30.2655C39.8195 30.6748 40.3738 30.7649 40.8651 30.7649C41.128 30.7863 41.3922 30.7434 41.6337 30.64C41.9969 30.4354 42.125 30.0158 42.2531 29.6412C42.3812 29.2319 42.4883 28.8225 42.6164 28.4132C42.7061 28.1343 42.7762 27.8498 42.8263 27.5617C42.8783 27.2742 42.8633 26.979 42.7822 26.698Z" fill="url(#paint18_linear)"/>
<path opacity="0.37" d="M26.8239 11.3578C28.4261 11.5461 29.856 10.4429 31.393 9.96399C32.2191 9.71657 33.0897 9.64336 33.947 9.74923C34.8043 9.8551 35.6286 10.1376 36.3653 10.578C36.7744 10.7922 37.1031 11.1277 37.3039 11.5359C37.7952 12.721 36.4073 13.8242 35.1705 14.3031C33.1541 15.0895 31.0205 15.5526 28.8523 15.6744C27.8696 15.7379 26.889 15.7174 25.9504 15.9876C24.3924 16.4235 23.1325 17.5677 21.5955 18.0343C19.9514 18.5337 18.2023 18.2226 16.5162 17.9095C13.4841 17.3507 10.4458 16.7838 7.40109 16.2475C7.08193 16.1841 6.73967 16.1227 6.52759 15.8934C6.27142 15.6437 6.22733 15.2282 6.18533 14.8701C6.05724 13.4128 5.97535 11.8122 6.81526 10.5842C8.70505 7.77601 13.5177 8.50465 16.4616 8.35729C18.2128 8.27542 19.7708 8.1915 21.501 8.75436C23.3467 9.40318 24.9047 11.1511 26.8239 11.3578Z" fill="#FFBA5F"/>
<path d="M49.2516 22.6616L51.7272 22.7865C52.2934 22.7898 52.8573 22.8585 53.407 22.9911C52.506 24.5233 51.7491 26.1318 51.1455 27.7969" fill="url(#paint19_linear)"/>
<path d="M49.955 25.4502C50.165 25.3662 50.375 25.2844 50.585 25.18C50.6505 25.1503 50.7092 25.1078 50.7572 25.0551C50.8852 24.8505 50.6081 24.5967 50.6291 24.347C50.6501 24.0973 50.9062 23.9929 51.1204 23.9376C51.3346 23.8823 51.5887 23.8332 51.7167 23.647" stroke="black" stroke-width="1.54" stroke-miterlimit="10"/>
<path d="M48.1408 51.4762C46.0115 51.3876 43.8784 51.456 41.7596 51.6809C41.7806 50.0783 41.7806 48.4757 41.8037 46.8751C41.8245 46.6748 41.7874 46.4727 41.6966 46.2918C41.5874 46.1483 41.4496 46.0279 41.2914 45.9377C40.0525 45.1681 38.7087 44.1898 38.6226 42.755C38.5806 42.1717 38.7717 41.5904 38.9648 41.0276C39.305 40.0288 39.6683 38.9685 40.4998 38.3238C40.9206 38.0225 41.3896 37.7908 41.8877 37.6381C43.4639 37.1099 45.1381 36.9179 46.797 37.0753C47.3513 37.1387 47.9707 37.2636 48.2668 37.7405C48.8442 38.6779 49.1865 39.3431 49.3986 40.4463C49.6334 41.6737 49.741 42.921 49.7198 44.1693C49.6821 46.6815 49.1459 49.1627 48.1408 51.4762Z" fill="#525263"/>
<path d="M46.4967 29.5293C46.3644 29.4597 46.1775 29.4249 46.0767 29.5293C46.0378 29.5857 46.016 29.6517 46.0137 29.7196C45.8626 30.9477 46.0137 32.1962 45.8794 33.4263C45.745 34.6564 45.2494 35.9499 44.1555 36.5865C44.0232 36.6663 43.2819 37.2394 43.2673 37.3908C43.2421 37.6569 44.2142 37.2476 44.4872 37.2291C45.5927 37.1534 46.7022 37.3047 47.744 37.6733C48.0778 37.792 48.5125 37.9087 48.7413 37.6446C48.8248 37.5277 48.8754 37.3915 48.8883 37.2496C49.0227 36.5128 49.155 35.7514 48.9702 35.0268C48.8358 34.5029 48.5398 34.0301 48.4054 33.5081C48.3446 33.2755 48.317 33.0358 48.3235 32.7959C48.3235 32.6096 48.4999 32.1818 48.4411 32.0324C48.3592 31.8155 47.872 31.5207 47.7209 31.2751C47.3639 30.6857 47.1707 29.8833 46.4967 29.5293Z" fill="url(#paint20_linear)"/>
<path d="M43.5109 23.9925C43.5109 23.9925 43.6852 19.8642 47.0511 19.5142C47.0511 19.5142 47.1099 19.2789 47.0091 19.24C46.9083 19.2011 44.7455 19.0844 44.5461 19.3177C44.3466 19.5511 42.2615 21.6961 42.8243 24.7457L43.324 25.372L43.5109 23.9925Z" fill="#FFBA5F"/>
<path d="M43.5109 23.9925C43.5109 23.9925 43.6852 19.8642 47.0511 19.5142C47.0511 19.5142 47.1099 19.2789 47.0091 19.24C46.9083 19.2011 44.7455 19.0844 44.5461 19.3177C44.3466 19.5511 42.2615 21.6961 42.8243 24.7457L43.324 25.372L43.5109 23.9925Z" fill="url(#paint21_linear)"/>
<path d="M41.2473 20.2629C41.2473 20.2629 41.9823 23.3331 41.7408 24.2132C41.4993 25.0933 42.4631 24.8579 42.4631 24.8579C42.4631 24.8579 42.4022 23.0997 42.8831 22.103C43.3639 21.1062 43.0636 19.5854 43.0636 19.5854L41.2473 20.2629Z" fill="url(#paint22_linear)"/>
<path d="M38.4273 19.602C38.3517 19.6593 38.274 19.7186 38.1984 19.78C37.796 20.0921 37.4387 20.4556 37.136 20.8607C36.189 22.1727 36.021 23.9759 34.8262 25.0791C33.9401 25.8978 32.6656 26.1577 31.454 26.3071C30.3593 26.4343 29.2576 26.4952 28.1553 26.4893C27.8046 26.4893 27.456 26.4893 27.1054 26.4647C27.2356 24.9235 28.0419 23.5215 28.8293 22.1666C29.5096 21.0122 30.2172 19.8189 31.3217 19.033C32.5816 18.1365 34.1984 17.8745 35.7543 17.8745C36.7853 17.8745 38.0536 17.9707 38.904 18.6032C39.5129 19.0575 38.8536 19.2847 38.4273 19.602Z" fill="url(#paint23_linear)"/>
<path d="M36.8714 32.8138C36.8084 33.1678 36.5312 33.4585 36.2751 33.7307C35.8908 34.1053 35.5276 34.4778 35.1643 34.8523C35.1089 34.9187 35.0365 34.9696 34.9543 34.9997C34.8944 35.0056 34.8339 34.9974 34.778 34.9757C34.7221 34.9539 34.6723 34.9193 34.6331 34.8748C34.2107 34.5161 33.8077 34.1362 33.4257 33.7368C33.4257 33.6836 33.4257 33.6325 33.4446 33.5813C33.4371 33.6037 33.428 33.6256 33.4173 33.6468C33.2927 33.5781 33.1893 33.4781 33.118 33.3571C33.0467 33.2361 33.0101 33.0986 33.012 32.9591C33.0016 32.8199 33.0272 32.6803 33.0867 32.5533C33.1461 32.4263 33.2375 32.316 33.3522 32.2325C33.5368 32.1008 33.7479 32.0088 33.9716 31.9623C34.633 31.7431 35.3231 31.617 36.021 31.5877C36.147 31.5727 36.2748 31.5875 36.3936 31.631C36.5125 31.6745 36.6187 31.7453 36.7034 31.8375C36.7714 31.9348 36.8127 32.0476 36.8231 32.1649C36.8241 32.1806 36.8241 32.1963 36.8231 32.212C36.8819 32.4071 36.8984 32.6121 36.8714 32.8138Z" fill="#FFBA5F"/>
<path d="M36.8714 32.8138C36.8084 33.1678 36.5312 33.4585 36.2751 33.7307C35.8908 34.1053 35.5276 34.4778 35.1643 34.8523C35.1089 34.9187 35.0365 34.9696 34.9543 34.9997C34.8944 35.0056 34.8339 34.9974 34.778 34.9757C34.7221 34.9539 34.6723 34.9193 34.6331 34.8748C34.2107 34.5161 33.8077 34.1362 33.4257 33.7368C33.4257 33.6836 33.4257 33.6325 33.4446 33.5813C33.4371 33.6037 33.428 33.6256 33.4173 33.6468C33.2927 33.5781 33.1893 33.4781 33.118 33.3571C33.0467 33.2361 33.0101 33.0986 33.012 32.9591C33.0016 32.8199 33.0272 32.6803 33.0867 32.5533C33.1461 32.4263 33.2375 32.316 33.3522 32.2325C33.5368 32.1008 33.7479 32.0088 33.9716 31.9623C34.633 31.7431 35.3231 31.617 36.021 31.5877C36.147 31.5727 36.2748 31.5875 36.3936 31.631C36.5125 31.6745 36.6187 31.7453 36.7034 31.8375C36.7714 31.9348 36.8127 32.0476 36.8231 32.1649C36.8241 32.1806 36.8241 32.1963 36.8231 32.212C36.8819 32.4071 36.8984 32.6121 36.8714 32.8138Z" fill="url(#paint24_linear)"/>
<path d="M28.3989 33.5225C28.3359 33.8766 28.0566 34.1672 27.8004 34.4374C27.4162 34.8119 27.055 35.1865 26.6917 35.5611C26.6366 35.6272 26.564 35.6774 26.4818 35.7064C26.4221 35.7131 26.3617 35.7052 26.306 35.6834C26.2502 35.6616 26.201 35.6266 26.1626 35.5815C25.7396 35.2228 25.3359 34.843 24.9531 34.4435C24.9531 34.3924 24.9636 34.3391 24.9741 34.29L24.9447 34.3555C24.8203 34.2867 24.717 34.1866 24.6457 34.0656C24.5744 33.9447 24.5378 33.8073 24.5395 33.6678C24.5302 33.5282 24.5567 33.3886 24.6164 33.2614C24.6761 33.1343 24.7673 33.0235 24.8817 32.9392C25.0698 32.8067 25.2845 32.7146 25.5117 32.669C26.1727 32.4511 26.8619 32.325 27.5589 32.2944C27.6852 32.2799 27.8132 32.295 27.9323 32.3384C28.0513 32.3818 28.158 32.4524 28.2435 32.5441C28.3095 32.6432 28.3505 32.7562 28.3632 32.8737C28.364 32.8887 28.364 32.9037 28.3632 32.9187C28.4167 33.1156 28.4288 33.3209 28.3989 33.5225Z" fill="#FFBA5F"/>
<path d="M28.3883 33.5082C28.3254 33.8623 28.0482 34.1529 27.792 34.4231C27.4078 34.7976 27.0445 35.1722 26.6812 35.5467C26.626 35.6127 26.5534 35.663 26.4713 35.6921C26.4116 35.6984 26.3513 35.6903 26.2957 35.6685C26.24 35.6468 26.1907 35.612 26.1521 35.5672C25.7297 35.2085 25.3268 34.8286 24.9447 34.4292C24.9447 34.3781 24.9552 34.3248 24.9636 34.2757C24.9558 34.2974 24.9467 34.3185 24.9363 34.3392C24.8116 34.2709 24.708 34.1713 24.6364 34.0507C24.5647 33.9301 24.5276 33.7929 24.529 33.6535C24.5194 33.5139 24.5456 33.3741 24.6054 33.2469C24.6651 33.1197 24.7565 33.009 24.8712 32.9249C25.0556 32.7928 25.2668 32.7007 25.4907 32.6547C26.1523 32.4366 26.8423 32.3105 27.54 32.2801C27.666 32.2651 27.7939 32.2799 27.9127 32.3234C28.0315 32.3669 28.1378 32.4377 28.2225 32.5298C28.2902 32.6281 28.3314 32.7414 28.3422 32.8594C28.343 32.8744 28.343 32.8894 28.3422 32.9044C28.4003 33.1004 28.416 33.306 28.3883 33.5082Z" fill="url(#paint25_linear)"/>
<path d="M13.2238 79.5206C14.9519 77.7113 16.659 75.902 18.3892 74.0701C18.7945 73.6608 19.2291 73.2166 19.7541 72.9874C20.1879 72.8413 20.6414 72.7578 21.1 72.7397C22.9562 72.5924 24.8355 72.4675 26.6917 72.3304C30.4272 72.0602 34.3118 71.79 37.8331 73.059C39.8383 73.7672 41.6126 74.9523 43.5024 75.8876C45.4867 76.866 47.5781 77.6151 49.6695 78.3437C52.1892 79.2177 54.7278 80.1121 57.3105 80.8183C59.5531 81.4425 61.8565 81.9215 63.971 82.8793C65.7852 83.698 67.4272 84.8545 69.0713 85.9781C56.4573 86.1037 43.8587 86.5342 31.2755 87.2696C21.0958 87.8714 10.786 88.641 0.7323 87.0199C2.76067 85.0018 3.67197 82.0668 5.94182 80.2984C8.7807 78.0736 12.8144 78.3028 16.4407 78.661" fill="#FFBA5F"/>
<path d="M13.2238 79.5206C14.9519 77.7113 16.659 75.902 18.3892 74.0701C18.7945 73.6608 19.2291 73.2166 19.7541 72.9874C20.1879 72.8413 20.6414 72.7578 21.1 72.7397C22.9562 72.5924 24.8355 72.4675 26.6917 72.3304C30.4272 72.0602 34.3118 71.79 37.8331 73.059C39.8383 73.7672 41.6126 74.9523 43.5024 75.8876C45.4867 76.866 47.5781 77.6151 49.6695 78.3437C52.1892 79.2177 54.7278 80.1121 57.3105 80.8183C59.5531 81.4425 61.8565 81.9215 63.971 82.8793C65.7852 83.698 67.4272 84.8545 69.0713 85.9781C56.4573 86.1037 43.8587 86.5342 31.2755 87.2696C21.0958 87.8714 10.786 88.641 0.7323 87.0199C2.76067 85.0018 3.67197 82.0668 5.94182 80.2984C8.7807 78.0736 12.8144 78.3028 16.4407 78.661" fill="url(#paint26_linear)"/>
<path d="M39.2126 69.8994C39.3403 70.114 39.4029 70.3596 39.3931 70.6076C39.4205 71.1587 39.4015 71.7111 39.3365 72.2593C39.3218 72.376 39.3155 72.5151 39.4099 72.5868C39.4736 72.6226 39.5465 72.6396 39.6199 72.6359C40.2981 72.6821 40.9384 72.9579 41.4299 73.4157C41.565 73.5748 41.7351 73.7021 41.9276 73.7882C42.0919 73.8264 42.2622 73.8341 42.4294 73.8107C42.7916 73.7941 43.154 73.8356 43.5024 73.9335C43.593 73.9523 43.677 73.9939 43.746 74.0543C43.9034 74.2119 43.8195 74.4862 43.662 74.6438C43.5214 74.7719 43.3525 74.867 43.1683 74.9216C42.9841 74.9763 42.7895 74.989 42.5995 74.959C42.2198 74.8974 41.8526 74.7772 41.5118 74.6028C40.1974 74.0147 38.8948 73.4007 37.6041 72.7607C37.5101 72.7227 37.425 72.6663 37.3543 72.5949C37.2695 72.483 37.2206 72.3491 37.2136 72.2102C37.1163 71.6908 37.1649 71.1554 37.3543 70.6608C37.5747 70.1511 38.7086 69.181 39.2126 69.8994Z" fill="url(#paint27_linear)"/>
<path d="M51.8721 56.6118C51.3976 56.6282 50.8621 56.6241 50.5241 56.2987C50.2301 56.0183 50.1734 55.5844 50.018 55.2139C49.8627 54.8434 49.4574 54.4832 49.0794 54.6429C48.9764 54.7017 48.8871 54.7809 48.8173 54.8754C48.7475 54.9698 48.6988 55.0775 48.6742 55.1914C48.5231 55.6537 48.4737 56.1419 48.5293 56.6241C48.5349 56.7337 48.5673 56.8404 48.6238 56.9352C48.6877 57.0169 48.7704 57.0828 48.8653 57.1276C49.5162 57.4797 50.291 57.5083 51.0343 57.537C52.8821 57.5902 54.7446 57.6434 56.5693 57.3569C56.8552 57.3424 57.1253 57.2249 57.3273 57.0273C58.0308 56.1493 55.6769 56.4972 55.362 56.5075L51.8721 56.6118Z" fill="url(#paint28_linear)"/>
<defs>
<linearGradient id="paint0_linear" x1="71.3642" y1="81.7545" x2="21.8284" y2="30.6963" gradientUnits="userSpaceOnUse">
<stop offset="0.01"/>
<stop offset="0.13" stop-opacity="0.69"/>
<stop offset="1" stop-opacity="0"/>
</linearGradient>
<linearGradient id="paint1_linear" x1="9290.5" y1="10178.4" x2="4801.51" y2="5504.86" gradientUnits="userSpaceOnUse">
<stop offset="0.01"/>
<stop offset="0.13" stop-opacity="0.69"/>
<stop offset="1" stop-opacity="0"/>
</linearGradient>
<linearGradient id="paint2_linear" x1="49.6695" y1="47.1885" x2="55.9562" y2="47.1885" gradientUnits="userSpaceOnUse">
<stop stop-color="#ECC4D7"/>
<stop offset="0.42" stop-color="#EFD4D1"/>
<stop offset="1" stop-color="#F2EAC9"/>
</linearGradient>
<linearGradient id="paint3_linear" x1="1857.27" y1="3631.03" x2="2159.32" y2="3631.03" gradientUnits="userSpaceOnUse">
<stop stop-color="#ECC4D7"/>
<stop offset="0.42" stop-color="#EFD4D1"/>
<stop offset="1" stop-color="#F2EAC9"/>
</linearGradient>
<linearGradient id="paint4_linear" x1="820.392" y1="888.303" x2="796.352" y2="868.365" gradientUnits="userSpaceOnUse">
<stop stop-color="#ECC4D7"/>
<stop offset="0.42" stop-color="#EFD4D1"/>
<stop offset="1" stop-color="#F2EAC9"/>
</linearGradient>
<linearGradient id="paint5_linear" x1="1493.68" y1="2751.1" x2="1536.9" y2="2637.72" gradientUnits="userSpaceOnUse">
<stop stop-color="#ECC4D7"/>
<stop offset="0.42" stop-color="#EFD4D1"/>
<stop offset="1" stop-color="#F2EAC9"/>
</linearGradient>
<linearGradient id="paint6_linear" x1="6414.35" y1="10877.4" x2="52845.6" y2="10877.4" gradientUnits="userSpaceOnUse">
<stop offset="0.01"/>
<stop offset="0.13" stop-opacity="0.69"/>
<stop offset="1" stop-opacity="0"/>
</linearGradient>
<linearGradient id="paint7_linear" x1="12457.5" y1="6344.38" x2="26601.3" y2="6344.38" gradientUnits="userSpaceOnUse">
<stop offset="0.01"/>
<stop offset="0.13" stop-opacity="0.69"/>
<stop offset="1" stop-opacity="0"/>
</linearGradient>
<linearGradient id="paint8_linear" x1="4702.29" y1="3749.7" x2="1656.05" y2="2240.99" gradientUnits="userSpaceOnUse">
<stop offset="0.01"/>
<stop offset="0.13" stop-opacity="0.69"/>
<stop offset="1" stop-opacity="0"/>
</linearGradient>
<linearGradient id="paint9_linear" x1="2653.12" y1="2965.88" x2="2006.21" y2="2942.04" gradientUnits="userSpaceOnUse">
<stop offset="0.01"/>
<stop offset="0.13" stop-opacity="0.69"/>
<stop offset="1" stop-opacity="0"/>
</linearGradient>
<linearGradient id="paint10_linear" x1="329.549" y1="1010.95" x2="459.686" y2="1020.58" gradientUnits="userSpaceOnUse">
<stop offset="0.01"/>
<stop offset="0.13" stop-opacity="0.69"/>
<stop offset="1" stop-opacity="0"/>
</linearGradient>
<linearGradient id="paint11_linear" x1="939.275" y1="1254.59" x2="1209.64" y2="1171.8" gradientUnits="userSpaceOnUse">
<stop offset="0.01"/>
<stop offset="0.13" stop-opacity="0.69"/>
<stop offset="1" stop-opacity="0"/>
</linearGradient>
<linearGradient id="paint12_linear" x1="2575.72" y1="932.829" x2="3027.58" y2="1863.05" gradientUnits="userSpaceOnUse">
<stop offset="0.01"/>
<stop offset="0.13" stop-opacity="0.69"/>
<stop offset="1" stop-opacity="0"/>
</linearGradient>
<linearGradient id="paint13_linear" x1="461.8" y1="1046.42" x2="491.827" y2="1046.42" gradientUnits="userSpaceOnUse">
<stop offset="0.01"/>
<stop offset="0.13" stop-opacity="0.69"/>
<stop offset="1" stop-opacity="0"/>
</linearGradient>
<linearGradient id="paint14_linear" x1="32.2372" y1="36.5169" x2="39.3271" y2="34.8839" gradientUnits="userSpaceOnUse">
<stop offset="0.01"/>
<stop offset="0.42" stop-opacity="0"/>
</linearGradient>
<linearGradient id="paint15_linear" x1="601.391" y1="1012.98" x2="481.197" y2="1041.69" gradientUnits="userSpaceOnUse">
<stop offset="0.01"/>
<stop offset="0.13" stop-opacity="0.69"/>
<stop offset="1" stop-opacity="0"/>
</linearGradient>
<linearGradient id="paint16_linear" x1="611.167" y1="2026.44" x2="657.75" y2="2026.44" gradientUnits="userSpaceOnUse">
<stop offset="0.01"/>
<stop offset="0.13" stop-opacity="0.69"/>
<stop offset="1" stop-opacity="0"/>
</linearGradient>
<linearGradient id="paint17_linear" x1="1144.65" y1="948.813" x2="1260.92" y2="948.813" gradientUnits="userSpaceOnUse">
<stop offset="0.01"/>
<stop offset="0.13" stop-opacity="0.69"/>
<stop offset="1" stop-opacity="0"/>
</linearGradient>
<linearGradient id="paint18_linear" x1="844.414" y1="664.4" x2="841.384" y2="1028.53" gradientUnits="userSpaceOnUse">
<stop offset="0.01"/>
<stop offset="0.13" stop-opacity="0.69"/>
<stop offset="1" stop-opacity="0"/>
</linearGradient>
<linearGradient id="paint19_linear" x1="1326.92" y1="661.185" x2="1136.3" y2="671.794" gradientUnits="userSpaceOnUse">
<stop offset="0.01"/>
<stop offset="0.13" stop-opacity="0.69"/>
<stop offset="1" stop-opacity="0"/>
</linearGradient>
<linearGradient id="paint20_linear" x1="1337.57" y1="1500.39" x2="1849.23" y2="1424.7" gradientUnits="userSpaceOnUse">
<stop offset="0.01"/>
<stop offset="0.13" stop-opacity="0.69"/>
<stop offset="1" stop-opacity="0"/>
</linearGradient>
<linearGradient id="paint21_linear" x1="1132.92" y1="700.834" x2="1061.27" y2="677.183" gradientUnits="userSpaceOnUse">
<stop offset="0.01"/>
<stop offset="0.13" stop-opacity="0.69"/>
<stop offset="1" stop-opacity="0"/>
</linearGradient>
<linearGradient id="paint22_linear" x1="475.598" y1="617.54" x2="567.787" y2="615.165" gradientUnits="userSpaceOnUse">
<stop offset="0.01"/>
<stop offset="0.13" stop-opacity="0.69"/>
<stop offset="1" stop-opacity="0"/>
</linearGradient>
<linearGradient id="paint23_linear" x1="2653.4" y1="1031.79" x2="1720.57" y2="703.552" gradientUnits="userSpaceOnUse">
<stop offset="0.01"/>
<stop offset="0.13" stop-opacity="0.69"/>
<stop offset="1" stop-opacity="0"/>
</linearGradient>
<linearGradient id="paint24_linear" x1="32.7034" y1="29.9708" x2="38.2668" y2="36.9648" gradientUnits="userSpaceOnUse">
<stop offset="0.01"/>
<stop offset="1" stop-opacity="0"/>
</linearGradient>
<linearGradient id="paint25_linear" x1="643.487" y1="572.593" x2="709.26" y2="662.889" gradientUnits="userSpaceOnUse">
<stop offset="0.01"/>
<stop offset="1" stop-opacity="0"/>
</linearGradient>
<linearGradient id="paint26_linear" x1="14154.4" y1="5207.49" x2="14148.1" y2="9817.54" gradientUnits="userSpaceOnUse">
<stop offset="0.01"/>
<stop offset="0.13" stop-opacity="0.69"/>
<stop offset="1" stop-opacity="0"/>
</linearGradient>
<linearGradient id="paint27_linear" x1="1485.16" y1="1969.07" x2="1696.58" y2="1969.07" gradientUnits="userSpaceOnUse">
<stop offset="0.01"/>
<stop offset="0.13" stop-opacity="0.69"/>
<stop offset="1" stop-opacity="0"/>
</linearGradient>
<linearGradient id="paint28_linear" x1="2476.56" y1="878.733" x2="2858.04" y2="878.733" gradientUnits="userSpaceOnUse">
<stop offset="0.01"/>
<stop offset="0.13" stop-opacity="0.69"/>
<stop offset="1" stop-opacity="0"/>
</linearGradient>
</defs>
</svg>
